<svg width="600" height="600" viewBox="0 0 600 600" fill="none" xmlns="http://www.w3.org/2000/svg">
<path d="M202.891 417.653C194.873 409.248 176.06 379.721 169.835 351.797C163.609 323.873 155.72 275.201 180.63 223.413C180.63 223.413 154.478 222.687 148.557 229.435C142.637 236.184 140.05 243.971 128.943 249.674C117.836 255.377 97.808 269.084 88.887 291.604C79.966 314.124 77.1077 332.964 83.3334 357.69C89.5591 382.417 104.068 407.428 127.83 418.433C151.592 429.439 164.152 421.624 176.61 432.439C189.069 443.255 197.08 451.51 211.48 446.527C225.88 441.544 210.909 426.058 202.891 417.653ZM108.005 320.431C104.19 324.091 99.4035 331.64 101.936 338.49C104.468 345.341 109.485 341.681 107.035 346.312C104.584 350.942 101.128 345.68 101.128 345.68C91.3786 330.629 100.198 323.154 102.791 319.42C105.385 315.686 112.133 307.796 112.133 307.796C113.926 313.377 111.821 316.772 108.005 320.431Z" fill="url(#paint0_radial_479_14519)"/>
<path d="M175.956 210.222C175.956 210.222 157.896 226.408 132.885 218.831C107.873 211.254 93.0322 185.516 87.6348 182.719C87.6348 182.719 121.051 157.599 149.804 166.113C178.556 174.626 181.251 200.357 182.079 209.598C182.079 209.598 157.482 173.479 122.925 176.072C122.925 176.072 153.436 177.838 175.956 210.222Z" fill="url(#paint1_radial_479_14519)"/>
<path d="M189.968 186.161C189.968 186.161 191.937 172.874 192.46 161.251C192.983 149.628 190.695 149.424 204.185 151.067C208.443 151.833 212.563 153.234 216.406 155.222C216.406 155.222 202.915 166.322 189.928 186.772" fill="url(#paint2_radial_479_14519)"/>
<path d="M519.999 299.701C519.999 397.845 441.169 477.408 343.927 477.408C259.185 477.408 188.455 416.984 171.645 336.485C174.903 347.105 179.036 357.438 184.001 367.375C210.424 429.279 273.055 466.213 343.927 464.801C434.224 463.001 507.506 390.88 507.506 299.701C507.506 208.522 434.258 136.142 343.927 134.608C283.503 133.582 229.713 161.764 198.638 207.313H193.485C224.41 156.156 280.217 122 343.927 122C441.169 122 519.999 201.563 519.999 299.701Z" fill="url(#paint3_radial_479_14519)"/>
<path d="M220.479 322.094H210.207V349.597H220.479V322.094Z" fill="#00B386"/>
<path fill-rule="evenodd" clip-rule="evenodd" d="M215.345 324.727C215.72 324.727 216.024 325.031 216.024 325.405V369.304C216.024 369.679 215.72 369.983 215.345 369.983C214.97 369.983 214.666 369.679 214.666 369.304V325.405C214.666 325.031 214.97 324.727 215.345 324.727Z" fill="#00B386"/>
<path d="M233.243 306.32H222.971V322.655H233.243V306.32Z" fill="#00B386"/>
<path fill-rule="evenodd" clip-rule="evenodd" d="M228.111 308.984C228.486 308.984 228.789 309.288 228.789 309.663V329.529C228.789 329.903 228.486 330.207 228.111 330.207C227.736 330.207 227.432 329.903 227.432 329.529V309.663C227.432 309.288 227.736 308.984 228.111 308.984Z" fill="#00B386"/>
<path d="M246.006 290.438H235.734V303.656H246.006V290.438Z" fill="#00B386"/>
<path fill-rule="evenodd" clip-rule="evenodd" d="M240.874 293.102C241.249 293.102 241.553 293.406 241.553 293.78V337.679C241.553 338.054 241.249 338.358 240.874 338.358C240.499 338.358 240.195 338.054 240.195 337.679V293.78C240.195 293.406 240.499 293.102 240.874 293.102Z" fill="#00B386"/>
<path d="M260.645 265.859H250.373V322.101H260.645V265.859Z" fill="#F2A900"/>
<path fill-rule="evenodd" clip-rule="evenodd" d="M255.511 245.625C255.886 245.625 256.19 245.929 256.19 246.304V341.882C256.19 342.257 255.886 342.561 255.511 342.561C255.136 342.561 254.832 342.257 254.832 341.882V246.304C254.832 245.929 255.136 245.625 255.511 245.625Z" fill="#F2A900"/>
<path d="M275.493 298.984H265.221V302.528H275.493V298.984Z" fill="#00B386"/>
<path fill-rule="evenodd" clip-rule="evenodd" d="M270.347 285.039C270.722 285.039 271.026 285.343 271.026 285.718V312.569C271.026 312.944 270.722 313.248 270.347 313.248C269.972 313.248 269.668 312.944 269.668 312.569V285.718C269.668 285.343 269.972 285.039 270.347 285.039Z" fill="#00B386"/>
<path d="M291.057 262.422H280.785V298.853H291.057V262.422Z" fill="#00B386"/>
<path fill-rule="evenodd" clip-rule="evenodd" d="M285.915 237.953C286.29 237.953 286.594 238.257 286.594 238.632V297.046C286.594 297.421 286.29 297.725 285.915 297.725C285.54 297.725 285.236 297.421 285.236 297.046V238.632C285.236 238.257 285.54 237.953 285.915 237.953Z" fill="#00B386"/>
<path d="M307.241 296.469H296.969V336.831H307.241V296.469Z" fill="#F2A900"/>
<path fill-rule="evenodd" clip-rule="evenodd" d="M302.107 290.297C302.482 290.297 302.786 290.601 302.786 290.976V364.971C302.786 365.346 302.482 365.65 302.107 365.65C301.732 365.65 301.428 365.346 301.428 364.971V290.976C301.428 290.601 301.732 290.297 302.107 290.297Z" fill="#F2A900"/>
<path d="M322.19 314.07H311.918V332.584H322.19V314.07Z" fill="#00B386"/>
<path fill-rule="evenodd" clip-rule="evenodd" d="M317.048 307.305C317.423 307.305 317.727 307.609 317.727 307.984V343.695C317.727 344.07 317.423 344.374 317.048 344.374C316.673 344.374 316.369 344.07 316.369 343.695V307.984C316.369 307.609 316.673 307.305 317.048 307.305Z" fill="#00B386"/>
<path d="M337.444 273.609H327.172V314.956H337.444V273.609Z" fill="#00B386"/>
<path fill-rule="evenodd" clip-rule="evenodd" d="M332.31 263.406C332.685 263.406 332.989 263.71 332.989 264.085V331.142C332.989 331.517 332.685 331.821 332.31 331.821C331.935 331.821 331.631 331.517 331.631 331.142V264.085C331.631 263.71 331.935 263.406 332.31 263.406Z" fill="#00B386"/>
<path d="M352.073 273.609H341.801V294.12H352.073V273.609Z" fill="#F2A900"/>
<path fill-rule="evenodd" clip-rule="evenodd" d="M346.948 263.406C347.323 263.406 347.627 263.71 347.627 264.085V299.728C347.627 300.103 347.323 300.407 346.948 300.407C346.573 300.407 346.27 300.103 346.27 299.728V264.085C346.27 263.71 346.573 263.406 346.948 263.406Z" fill="#F2A900"/>
<path d="M365.618 296.469H355.346V299.388H365.618V296.469Z" fill="#F2A900"/>
<path fill-rule="evenodd" clip-rule="evenodd" d="M360.493 278.727C360.868 278.727 361.172 279.031 361.172 279.405V309.298C361.172 309.673 360.868 309.977 360.493 309.977C360.118 309.977 359.814 309.673 359.814 309.298V279.405C359.814 279.031 360.118 278.727 360.493 278.727Z" fill="#F2A900"/>
<path d="M378.911 309.555H368.639V331.837H378.911V309.555Z" fill="#F2A900"/>
<path fill-rule="evenodd" clip-rule="evenodd" d="M373.769 296.891C374.144 296.891 374.448 297.195 374.448 297.57V334.591C374.448 334.966 374.144 335.27 373.769 335.27C373.394 335.27 373.09 334.966 373.09 334.591V297.57C373.09 297.195 373.394 296.891 373.769 296.891Z" fill="#F2A900"/>
<path d="M392.612 327.148H382.34V361.726H392.612V327.148Z" fill="#F2A900"/>
<path fill-rule="evenodd" clip-rule="evenodd" d="M387.47 312.953C387.845 312.953 388.149 313.257 388.149 313.632V389.834C388.149 390.209 387.845 390.513 387.47 390.513C387.095 390.513 386.791 390.209 386.791 389.834V313.632C386.791 313.257 387.095 312.953 387.47 312.953Z" fill="#F2A900"/>
<path d="M406.001 337.281H395.729V346.997H406.001V337.281Z" fill="#00B386"/>
<path fill-rule="evenodd" clip-rule="evenodd" d="M400.861 329.281C401.236 329.281 401.539 329.585 401.539 329.96V366.758C401.539 367.133 401.236 367.437 400.861 367.437C400.486 367.437 400.182 367.133 400.182 366.758V329.96C400.182 329.585 400.486 329.281 400.861 329.281Z" fill="#00B386"/>
<path d="M419.928 303.758H409.656V336.821H419.928V303.758Z" fill="#00B386"/>
<path fill-rule="evenodd" clip-rule="evenodd" d="M414.784 292.305C415.159 292.305 415.463 292.609 415.463 292.984V341.812C415.463 342.187 415.159 342.49 414.784 342.49C414.409 342.49 414.105 342.187 414.105 341.812V292.984C414.105 292.609 414.409 292.305 414.784 292.305Z" fill="#00B386"/>
<path d="M433.549 285.703H423.277V307.564H433.549V285.703Z" fill="#00B386"/>
<path fill-rule="evenodd" clip-rule="evenodd" d="M428.417 279.148C428.792 279.148 429.096 279.452 429.096 279.827V323.726C429.096 324.101 428.792 324.405 428.417 324.405C428.042 324.405 427.738 324.101 427.738 323.726V279.827C427.738 279.452 428.042 279.148 428.417 279.148Z" fill="#00B386"/>
<path d="M447.874 264.453H437.602V291.956H447.874V264.453Z" fill="#00B386"/>
<path fill-rule="evenodd" clip-rule="evenodd" d="M442.734 247.133C443.109 247.133 443.413 247.437 443.413 247.812V306.491C443.413 306.866 443.109 307.17 442.734 307.17C442.359 307.17 442.055 306.866 442.055 306.491V247.812C442.055 247.437 442.359 247.133 442.734 247.133Z" fill="#00B386"/>
<path d="M461.421 267.438H451.148V275.985H461.421V267.438Z" fill="#F2A900"/>
<path fill-rule="evenodd" clip-rule="evenodd" d="M456.279 261.219C456.653 261.219 456.957 261.523 456.957 261.898V280.249C456.957 280.624 456.653 280.928 456.279 280.928C455.904 280.928 455.6 280.624 455.6 280.249V261.898C455.6 261.523 455.904 261.219 456.279 261.219Z" fill="#F2A900"/>
<path fill-rule="evenodd" clip-rule="evenodd" d="M342.636 154.43C343.011 154.43 343.315 154.734 343.315 155.109V161.545C343.315 161.92 343.011 162.224 342.636 162.224C342.261 162.224 341.957 161.92 341.957 161.545V155.109C341.957 154.734 342.261 154.43 342.636 154.43Z" fill="#F2A900"/>
<path fill-rule="evenodd" clip-rule="evenodd" d="M371.355 157.804C371.539 157.841 371.658 158.02 371.62 158.204L370.344 164.511C370.307 164.695 370.128 164.813 369.944 164.776C369.76 164.739 369.641 164.56 369.679 164.376L370.955 158.069C370.992 157.885 371.171 157.766 371.355 157.804Z" fill="#F2A900"/>
<path fill-rule="evenodd" clip-rule="evenodd" d="M398.907 166.488C399.08 166.561 399.161 166.76 399.088 166.932L396.59 172.859C396.517 173.032 396.318 173.113 396.145 173.04C395.972 172.967 395.891 172.768 395.964 172.596L398.463 166.669C398.535 166.496 398.735 166.415 398.907 166.488Z" fill="#F2A900"/>
<path fill-rule="evenodd" clip-rule="evenodd" d="M424.38 180.181C424.69 180.392 424.77 180.814 424.559 181.124L420.933 186.44C420.722 186.75 420.3 186.83 419.99 186.618C419.68 186.407 419.6 185.985 419.811 185.675L423.437 180.359C423.648 180.049 424.071 179.969 424.38 180.181Z" fill="#F2A900"/>
<path fill-rule="evenodd" clip-rule="evenodd" d="M446.069 199.293C446.135 199.361 446.133 199.468 446.066 199.533L441.456 204.028C441.389 204.093 441.282 204.092 441.216 204.025C441.151 203.958 441.152 203.85 441.219 203.785L445.829 199.29C445.896 199.225 446.004 199.226 446.069 199.293Z" fill="#F2A900"/>
<path fill-rule="evenodd" clip-rule="evenodd" d="M463.919 221.937C463.97 222.016 463.947 222.121 463.868 222.172L458.457 225.661C458.378 225.712 458.273 225.69 458.222 225.611C458.172 225.532 458.194 225.427 458.273 225.376L463.684 221.886C463.763 221.836 463.868 221.858 463.919 221.937Z" fill="#F2A900"/>
<path fill-rule="evenodd" clip-rule="evenodd" d="M477.388 247.533C477.525 247.882 477.353 248.276 477.004 248.413L471.009 250.762C470.66 250.899 470.266 250.727 470.129 250.377C469.992 250.028 470.164 249.634 470.513 249.498L476.508 247.149C476.857 247.012 477.251 247.184 477.388 247.533Z" fill="#F2A900"/>
<path fill-rule="evenodd" clip-rule="evenodd" d="M484.543 275.5C484.559 275.592 484.498 275.68 484.405 275.696L478.064 276.81C477.972 276.826 477.884 276.764 477.868 276.672C477.852 276.58 477.913 276.492 478.006 276.475L484.347 275.362C484.439 275.346 484.527 275.407 484.543 275.5Z" fill="#F2A900"/>
<path fill-rule="evenodd" clip-rule="evenodd" d="M479.219 304.106C479.229 303.731 479.541 303.436 479.916 303.446L486.345 303.615C486.72 303.625 487.016 303.937 487.006 304.312C486.996 304.687 486.684 304.983 486.309 304.973L479.88 304.803C479.505 304.793 479.209 304.481 479.219 304.106Z" fill="#F2A900"/>
<path fill-rule="evenodd" clip-rule="evenodd" d="M475.948 331.334C475.99 331.151 476.172 331.037 476.355 331.079L482.628 332.518C482.811 332.56 482.925 332.742 482.883 332.925C482.841 333.108 482.659 333.222 482.476 333.18L476.203 331.741C476.02 331.699 475.906 331.517 475.948 331.334Z" fill="#F2A900"/>
<path fill-rule="evenodd" clip-rule="evenodd" d="M467.164 357.389C467.202 357.303 467.303 357.266 467.388 357.304L473.254 359.959C473.339 359.997 473.377 360.098 473.339 360.183C473.3 360.269 473.2 360.307 473.114 360.268L467.248 357.613C467.163 357.575 467.125 357.474 467.164 357.389Z" fill="#F2A900"/>
<path fill-rule="evenodd" clip-rule="evenodd" d="M452.83 380.789C453.049 380.485 453.474 380.417 453.778 380.637L458.992 384.405C459.296 384.624 459.364 385.049 459.145 385.352C458.925 385.656 458.5 385.725 458.197 385.505L452.982 381.737C452.679 381.517 452.61 381.093 452.83 380.789Z" fill="#F2A900"/>
<path fill-rule="evenodd" clip-rule="evenodd" d="M434.881 401.592C434.949 401.528 435.057 401.533 435.12 401.601L439.493 406.327C439.556 406.395 439.552 406.503 439.483 406.566C439.415 406.63 439.307 406.626 439.244 406.557L434.871 401.832C434.808 401.763 434.812 401.656 434.881 401.592Z" fill="#F2A900"/>
<path fill-rule="evenodd" clip-rule="evenodd" d="M412.841 418.017C412.921 417.968 413.026 417.994 413.074 418.074L416.422 423.566C416.47 423.646 416.445 423.751 416.365 423.799C416.285 423.848 416.18 423.823 416.132 423.743L412.785 418.25C412.736 418.17 412.761 418.066 412.841 418.017Z" fill="#F2A900"/>
<path fill-rule="evenodd" clip-rule="evenodd" d="M387.977 429.737C388.065 429.705 388.163 429.75 388.195 429.839L390.381 435.888C390.413 435.976 390.367 436.073 390.279 436.105C390.191 436.137 390.093 436.091 390.061 436.003L387.875 429.954C387.844 429.866 387.889 429.769 387.977 429.737Z" fill="#F2A900"/>
<path fill-rule="evenodd" clip-rule="evenodd" d="M361.251 436.152C361.436 436.125 361.609 436.253 361.636 436.438L362.58 442.8C362.607 442.985 362.479 443.158 362.294 443.185C362.108 443.213 361.936 443.085 361.908 442.899L360.965 436.538C360.937 436.352 361.065 436.18 361.251 436.152Z" fill="#F2A900"/>
<path fill-rule="evenodd" clip-rule="evenodd" d="M333.824 436.931C334.199 436.95 334.486 437.269 334.467 437.644L334.134 444.066C334.115 444.441 333.796 444.729 333.421 444.709C333.047 444.69 332.759 444.371 332.778 443.996L333.111 437.574C333.13 437.199 333.45 436.911 333.824 436.931Z" fill="#F2A900"/>
<path fill-rule="evenodd" clip-rule="evenodd" d="M306.767 432.67C307.13 432.763 307.349 433.133 307.255 433.497L305.653 439.729C305.56 440.092 305.19 440.311 304.826 440.218C304.463 440.124 304.245 439.754 304.338 439.391L305.94 433.158C306.034 432.795 306.404 432.577 306.767 432.67Z" fill="#F2A900"/>
<path fill-rule="evenodd" clip-rule="evenodd" d="M280.884 423.517C280.968 423.558 281.003 423.659 280.962 423.744L278.158 429.535C278.118 429.619 278.016 429.655 277.932 429.614C277.847 429.573 277.812 429.471 277.853 429.387L280.657 423.596C280.698 423.511 280.799 423.476 280.884 423.517Z" fill="#F2A900"/>
<path fill-rule="evenodd" clip-rule="evenodd" d="M257.535 408.972C257.609 409.029 257.624 409.135 257.567 409.21L253.67 414.329C253.613 414.404 253.507 414.418 253.432 414.361C253.358 414.305 253.343 414.198 253.4 414.123L257.297 409.004C257.354 408.93 257.46 408.915 257.535 408.972Z" fill="#F2A900"/>
<path fill-rule="evenodd" clip-rule="evenodd" d="M237.674 389.99C237.797 390.131 237.783 390.346 237.642 390.47L232.802 394.72C232.661 394.843 232.446 394.829 232.323 394.688C232.199 394.548 232.213 394.333 232.354 394.209L237.194 389.959C237.335 389.836 237.55 389.85 237.674 389.99Z" fill="#F2A900"/>
<path fill-rule="evenodd" clip-rule="evenodd" d="M222.139 367.388C222.325 367.713 222.213 368.128 221.888 368.315L216.3 371.519C215.975 371.706 215.56 371.593 215.373 371.268C215.187 370.943 215.299 370.528 215.624 370.341L221.212 367.137C221.537 366.95 221.952 367.063 222.139 367.388Z" fill="#F2A900"/>
<path fill-rule="evenodd" clip-rule="evenodd" d="M210.769 342.42C210.828 342.598 210.732 342.79 210.554 342.849L204.451 344.879C204.273 344.938 204.081 344.842 204.021 344.664C203.962 344.486 204.058 344.294 204.236 344.235L210.34 342.205C210.518 342.146 210.71 342.242 210.769 342.42Z" fill="#F2A900"/>
<path fill-rule="evenodd" clip-rule="evenodd" d="M204.735 315.618C204.746 315.711 204.68 315.796 204.587 315.807L198.198 316.588C198.105 316.599 198.02 316.533 198.009 316.44C197.998 316.347 198.064 316.262 198.157 316.251L204.546 315.47C204.639 315.459 204.723 315.525 204.735 315.618Z" fill="#F2A900"/>
<path fill-rule="evenodd" clip-rule="evenodd" d="M197.545 287.578C197.553 287.485 197.634 287.415 197.728 287.422L204.144 287.925C204.237 287.932 204.307 288.014 204.3 288.107C204.292 288.201 204.211 288.271 204.117 288.263L197.701 287.761C197.608 287.754 197.538 287.672 197.545 287.578Z" fill="#F2A900"/>
<path fill-rule="evenodd" clip-rule="evenodd" d="M202.329 259.055C202.432 258.695 202.808 258.486 203.168 258.589L209.353 260.354C209.714 260.457 209.923 260.833 209.82 261.193C209.717 261.554 209.341 261.763 208.98 261.66L202.796 259.894C202.435 259.792 202.226 259.416 202.329 259.055Z" fill="#F2A900"/>
<path fill-rule="evenodd" clip-rule="evenodd" d="M213.601 232.467C213.644 232.384 213.746 232.351 213.83 232.394L219.546 235.347C219.63 235.39 219.662 235.493 219.619 235.576C219.576 235.659 219.474 235.692 219.39 235.649L213.674 232.696C213.591 232.653 213.558 232.55 213.601 232.467Z" fill="#F2A900"/>
<path fill-rule="evenodd" clip-rule="evenodd" d="M229.479 208.384C229.538 208.311 229.644 208.299 229.717 208.358L234.735 212.391C234.808 212.449 234.819 212.556 234.761 212.629C234.702 212.702 234.595 212.714 234.522 212.655L229.505 208.622C229.432 208.564 229.42 208.457 229.479 208.384Z" fill="#F2A900"/>
<path fill-rule="evenodd" clip-rule="evenodd" d="M249.714 187.782C249.858 187.662 250.072 187.681 250.192 187.826L254.307 192.775C254.426 192.919 254.407 193.133 254.263 193.253C254.118 193.373 253.904 193.353 253.784 193.209L249.67 188.26C249.55 188.115 249.57 187.901 249.714 187.782Z" fill="#F2A900"/>
<path fill-rule="evenodd" clip-rule="evenodd" d="M273.566 171.449C273.896 171.271 274.307 171.394 274.486 171.724L277.541 177.386C277.719 177.716 277.596 178.128 277.266 178.306C276.936 178.484 276.524 178.361 276.346 178.031L273.291 172.369C273.112 172.039 273.236 171.627 273.566 171.449Z" fill="#F2A900"/>
<path fill-rule="evenodd" clip-rule="evenodd" d="M300.499 160.961C300.589 160.933 300.684 160.984 300.711 161.073L302.585 167.231C302.612 167.321 302.562 167.416 302.472 167.443C302.382 167.47 302.287 167.42 302.26 167.33L300.386 161.172C300.359 161.083 300.41 160.988 300.499 160.961Z" fill="#F2A900"/>
<path fill-rule="evenodd" clip-rule="evenodd" d="M328.784 154.995C329.157 154.959 329.489 155.233 329.525 155.606L330.142 162.008C330.179 162.381 329.905 162.713 329.532 162.749C329.159 162.785 328.827 162.512 328.791 162.139L328.173 155.736C328.137 155.363 328.41 155.031 328.784 154.995Z" fill="#F2A900"/>
<path fill-rule="evenodd" clip-rule="evenodd" d="M357.696 155.627C357.883 155.646 358.018 155.813 357.999 156L357.333 162.402C357.314 162.588 357.147 162.724 356.961 162.704C356.774 162.685 356.639 162.518 356.658 162.332L357.323 155.929C357.343 155.743 357.51 155.607 357.696 155.627Z" fill="#F2A900"/>
<path fill-rule="evenodd" clip-rule="evenodd" d="M385.942 161.641C386.121 161.697 386.221 161.887 386.165 162.066L384.244 168.203C384.188 168.382 383.997 168.482 383.818 168.426C383.639 168.37 383.54 168.179 383.596 168.001L385.517 161.863C385.573 161.684 385.763 161.585 385.942 161.641Z" fill="#F2A900"/>
<path fill-rule="evenodd" clip-rule="evenodd" d="M412.599 172.858C412.928 173.039 413.047 173.451 412.867 173.78L409.764 179.415C409.583 179.743 409.17 179.863 408.842 179.682C408.513 179.501 408.394 179.089 408.575 178.76L411.677 173.125C411.858 172.797 412.271 172.677 412.599 172.858Z" fill="#F2A900"/>
<path fill-rule="evenodd" clip-rule="evenodd" d="M436.13 189.643C436.273 189.764 436.291 189.978 436.17 190.121L432.015 195.03C431.893 195.173 431.679 195.191 431.536 195.07C431.393 194.949 431.375 194.734 431.496 194.591L435.651 189.683C435.773 189.54 435.987 189.522 436.13 189.643Z" fill="#F2A900"/>
<path fill-rule="evenodd" clip-rule="evenodd" d="M455.946 210.635C456.004 210.708 455.991 210.815 455.918 210.873L450.867 214.865C450.793 214.923 450.686 214.911 450.628 214.837C450.57 214.764 450.583 214.657 450.656 214.599L455.707 210.607C455.781 210.549 455.888 210.561 455.946 210.635Z" fill="#F2A900"/>
<path fill-rule="evenodd" clip-rule="evenodd" d="M461.309 218.003C461.362 218.08 461.343 218.186 461.266 218.239L455.977 221.905C455.9 221.959 455.795 221.939 455.741 221.862C455.688 221.785 455.707 221.68 455.784 221.626L461.073 217.96C461.15 217.907 461.256 217.926 461.309 218.003Z" fill="#F2A900"/>
<path fill-rule="evenodd" clip-rule="evenodd" d="M466.217 225.692C466.265 225.772 466.239 225.876 466.159 225.925L460.646 229.244C460.566 229.293 460.461 229.267 460.413 229.187C460.365 229.106 460.391 229.002 460.471 228.954L465.984 225.634C466.064 225.585 466.168 225.611 466.217 225.692Z" fill="#F2A900"/>
<path fill-rule="evenodd" clip-rule="evenodd" d="M470.62 233.654C470.663 233.737 470.631 233.84 470.548 233.883L464.838 236.85C464.755 236.893 464.652 236.861 464.609 236.777C464.566 236.694 464.598 236.592 464.681 236.549L470.391 233.582C470.474 233.538 470.577 233.571 470.62 233.654Z" fill="#F2A900"/>
<path fill-rule="evenodd" clip-rule="evenodd" d="M474.515 241.875C474.553 241.96 474.514 242.061 474.428 242.098L468.549 244.699C468.463 244.737 468.363 244.698 468.325 244.612C468.287 244.526 468.326 244.426 468.412 244.388L474.291 241.788C474.377 241.75 474.477 241.789 474.515 241.875Z" fill="#F2A900"/>
<path fill-rule="evenodd" clip-rule="evenodd" d="M477.895 250.33C477.927 250.418 477.882 250.515 477.794 250.548L471.752 252.781C471.664 252.814 471.567 252.769 471.534 252.681C471.502 252.593 471.546 252.495 471.634 252.463L477.677 250.229C477.765 250.197 477.862 250.242 477.895 250.33Z" fill="#F2A900"/>
<path fill-rule="evenodd" clip-rule="evenodd" d="M480.725 258.965C480.752 259.055 480.701 259.149 480.612 259.176L474.447 261.023C474.357 261.05 474.263 260.999 474.236 260.909C474.209 260.819 474.26 260.724 474.35 260.698L480.514 258.851C480.604 258.824 480.699 258.875 480.725 258.965Z" fill="#F2A900"/>
<path fill-rule="evenodd" clip-rule="evenodd" d="M483.008 267.78C483.029 267.871 482.972 267.962 482.881 267.984L476.614 269.436C476.523 269.458 476.432 269.401 476.411 269.309C476.39 269.218 476.446 269.127 476.538 269.106L482.804 267.653C482.895 267.632 482.987 267.689 483.008 267.78Z" fill="#F2A900"/>
<path fill-rule="evenodd" clip-rule="evenodd" d="M484.738 276.697C484.753 276.789 484.691 276.877 484.598 276.892L478.25 277.944C478.158 277.96 478.07 277.897 478.055 277.805C478.04 277.712 478.102 277.625 478.195 277.609L484.543 276.557C484.635 276.542 484.723 276.604 484.738 276.697Z" fill="#F2A900"/>
<path fill-rule="evenodd" clip-rule="evenodd" d="M485.899 285.715C485.909 285.808 485.841 285.892 485.747 285.901L479.345 286.553C479.252 286.562 479.169 286.494 479.159 286.401C479.15 286.308 479.217 286.225 479.311 286.215L485.713 285.563C485.806 285.554 485.89 285.622 485.899 285.715Z" fill="#F2A900"/>
<path fill-rule="evenodd" clip-rule="evenodd" d="M486.489 294.843C486.493 294.936 486.42 295.015 486.326 295.019L479.897 295.27C479.803 295.274 479.724 295.201 479.721 295.107C479.717 295.014 479.79 294.935 479.884 294.931L486.313 294.68C486.407 294.676 486.486 294.749 486.489 294.843Z" fill="#F2A900"/>
<path fill-rule="evenodd" clip-rule="evenodd" d="M479.738 303.752C479.741 303.658 479.818 303.584 479.912 303.586L486.341 303.735C486.435 303.738 486.509 303.815 486.507 303.909C486.505 304.003 486.427 304.077 486.333 304.075L479.904 303.925C479.81 303.923 479.736 303.845 479.738 303.752Z" fill="#F2A900"/>
<path fill-rule="evenodd" clip-rule="evenodd" d="M479.212 312.436C479.22 312.343 479.302 312.274 479.395 312.282L485.804 312.832C485.898 312.84 485.967 312.922 485.959 313.015C485.951 313.109 485.869 313.178 485.775 313.17L479.366 312.62C479.273 312.612 479.204 312.53 479.212 312.436Z" fill="#F2A900"/>
<path fill-rule="evenodd" clip-rule="evenodd" d="M478.143 321.012C478.156 320.919 478.243 320.855 478.336 320.869L484.697 321.826C484.79 321.84 484.854 321.927 484.84 322.019C484.826 322.112 484.739 322.176 484.647 322.162L478.285 321.205C478.192 321.191 478.129 321.104 478.143 321.012Z" fill="#F2A900"/>
<path fill-rule="evenodd" clip-rule="evenodd" d="M476.523 329.556C476.543 329.464 476.633 329.406 476.725 329.426L483.019 330.784C483.11 330.803 483.169 330.894 483.149 330.985C483.129 331.077 483.039 331.135 482.947 331.115L476.654 329.758C476.562 329.738 476.504 329.647 476.523 329.556Z" fill="#F2A900"/>
<path fill-rule="evenodd" clip-rule="evenodd" d="M474.391 337.967C474.417 337.877 474.51 337.825 474.601 337.85L480.792 339.595C480.883 339.62 480.935 339.714 480.91 339.804C480.884 339.895 480.79 339.947 480.7 339.922L474.509 338.177C474.418 338.151 474.366 338.058 474.391 337.967Z" fill="#F2A900"/>
<path fill-rule="evenodd" clip-rule="evenodd" d="M471.723 346.231C471.754 346.142 471.85 346.096 471.939 346.127L478.015 348.259C478.104 348.29 478.15 348.386 478.119 348.475C478.088 348.563 477.991 348.61 477.903 348.579L471.826 346.447C471.738 346.416 471.691 346.319 471.723 346.231Z" fill="#F2A900"/>
<path fill-rule="evenodd" clip-rule="evenodd" d="M468.541 354.299C468.577 354.213 468.677 354.172 468.763 354.209L474.69 356.721C474.777 356.757 474.817 356.857 474.78 356.943C474.744 357.03 474.644 357.07 474.558 357.033L468.631 354.521C468.545 354.485 468.504 354.385 468.541 354.299Z" fill="#F2A900"/>
<path fill-rule="evenodd" clip-rule="evenodd" d="M464.866 362.125C464.907 362.041 465.009 362.007 465.093 362.049L470.844 364.921C470.928 364.963 470.962 365.065 470.92 365.149C470.878 365.233 470.776 365.267 470.692 365.225L464.942 362.353C464.858 362.311 464.824 362.209 464.866 362.125Z" fill="#F2A900"/>
<path fill-rule="evenodd" clip-rule="evenodd" d="M460.689 369.756C460.736 369.675 460.84 369.648 460.921 369.695L466.488 372.927C466.569 372.974 466.597 373.077 466.55 373.159C466.503 373.24 466.399 373.267 466.318 373.22L460.751 369.988C460.669 369.941 460.642 369.837 460.689 369.756Z" fill="#F2A900"/>
<path fill-rule="evenodd" clip-rule="evenodd" d="M456.054 377.075C456.106 376.997 456.212 376.977 456.289 377.029L461.639 380.607C461.717 380.659 461.738 380.764 461.686 380.842C461.634 380.92 461.529 380.941 461.451 380.889L456.101 377.311C456.023 377.259 456.002 377.153 456.054 377.075Z" fill="#F2A900"/>
<path fill-rule="evenodd" clip-rule="evenodd" d="M450.967 384.113C451.024 384.039 451.13 384.025 451.205 384.082L456.317 387.992C456.391 388.049 456.405 388.156 456.348 388.23C456.292 388.305 456.185 388.319 456.111 388.262L450.998 384.351C450.924 384.294 450.91 384.188 450.967 384.113Z" fill="#F2A900"/>
<path fill-rule="evenodd" clip-rule="evenodd" d="M445.452 390.808C445.513 390.738 445.62 390.73 445.691 390.792L450.552 395.014C450.623 395.076 450.631 395.183 450.569 395.254C450.508 395.325 450.4 395.332 450.33 395.271L445.469 391.048C445.398 390.986 445.39 390.879 445.452 390.808Z" fill="#F2A900"/>
<path fill-rule="evenodd" clip-rule="evenodd" d="M439.517 397.144C439.583 397.078 439.691 397.077 439.758 397.142L444.347 401.657C444.414 401.723 444.415 401.831 444.349 401.897C444.283 401.964 444.176 401.965 444.109 401.899L439.519 397.384C439.453 397.319 439.452 397.211 439.517 397.144Z" fill="#F2A900"/>
<path fill-rule="evenodd" clip-rule="evenodd" d="M433.199 403.067C433.269 403.004 433.376 403.01 433.439 403.08L437.73 407.88C437.792 407.95 437.786 408.057 437.716 408.12C437.646 408.182 437.539 408.176 437.477 408.106L433.186 403.306C433.123 403.236 433.129 403.129 433.199 403.067Z" fill="#F2A900"/>
<path fill-rule="evenodd" clip-rule="evenodd" d="M426.526 408.63C426.599 408.572 426.706 408.585 426.764 408.658L430.749 413.716C430.807 413.79 430.795 413.897 430.721 413.955C430.647 414.013 430.541 414 430.483 413.926L426.497 408.869C426.439 408.795 426.452 408.688 426.526 408.63Z" fill="#F2A900"/>
<path fill-rule="evenodd" clip-rule="evenodd" d="M419.517 413.741C419.594 413.688 419.699 413.707 419.753 413.784L423.412 419.08C423.465 419.157 423.446 419.263 423.369 419.316C423.292 419.369 423.186 419.35 423.133 419.273L419.473 413.977C419.42 413.9 419.439 413.794 419.517 413.741Z" fill="#F2A900"/>
<path fill-rule="evenodd" clip-rule="evenodd" d="M412.194 418.399C412.274 418.351 412.378 418.377 412.427 418.457L415.74 423.977C415.788 424.057 415.762 424.162 415.682 424.21C415.601 424.258 415.497 424.232 415.449 424.152L412.136 418.632C412.087 418.552 412.113 418.447 412.194 418.399Z" fill="#F2A900"/>
<path fill-rule="evenodd" clip-rule="evenodd" d="M404.601 422.597C404.685 422.554 404.787 422.587 404.83 422.67L407.79 428.386C407.833 428.47 407.801 428.572 407.718 428.615C407.634 428.658 407.532 428.626 407.489 428.542L404.529 422.826C404.486 422.743 404.518 422.64 404.601 422.597Z" fill="#F2A900"/>
<path fill-rule="evenodd" clip-rule="evenodd" d="M396.76 426.272C396.845 426.234 396.946 426.273 396.983 426.359L399.577 432.245C399.615 432.331 399.576 432.431 399.49 432.469C399.404 432.507 399.304 432.468 399.266 432.382L396.673 426.496C396.635 426.41 396.674 426.31 396.76 426.272Z" fill="#F2A900"/>
<path fill-rule="evenodd" clip-rule="evenodd" d="M388.689 429.495C388.777 429.462 388.875 429.507 388.907 429.595L391.134 435.631C391.166 435.719 391.121 435.817 391.034 435.849C390.946 435.881 390.848 435.836 390.816 435.749L388.589 429.713C388.556 429.625 388.601 429.527 388.689 429.495Z" fill="#F2A900"/>
<path fill-rule="evenodd" clip-rule="evenodd" d="M380.44 432.163C380.529 432.137 380.624 432.188 380.651 432.278L382.491 438.449C382.517 438.539 382.466 438.633 382.376 438.66C382.287 438.687 382.192 438.636 382.165 438.546L380.325 432.375C380.299 432.285 380.35 432.19 380.44 432.163Z" fill="#F2A900"/>
<path fill-rule="evenodd" clip-rule="evenodd" d="M372.042 434.333C372.133 434.311 372.224 434.368 372.245 434.46L373.691 440.726C373.712 440.818 373.656 440.909 373.564 440.93C373.473 440.951 373.382 440.894 373.361 440.803L371.915 434.536C371.893 434.445 371.95 434.354 372.042 434.333Z" fill="#F2A900"/>
<path fill-rule="evenodd" clip-rule="evenodd" d="M363.521 435.979C363.614 435.964 363.701 436.026 363.716 436.119L364.762 442.467C364.777 442.559 364.714 442.646 364.622 442.662C364.529 442.677 364.442 442.614 364.427 442.522L363.381 436.174C363.366 436.081 363.429 435.994 363.521 435.979Z" fill="#F2A900"/>
<path fill-rule="evenodd" clip-rule="evenodd" d="M354.918 437.063C355.012 437.054 355.095 437.122 355.104 437.215L355.749 443.617C355.759 443.711 355.691 443.794 355.597 443.803C355.504 443.813 355.421 443.745 355.411 443.651L354.766 437.249C354.757 437.156 354.825 437.073 354.918 437.063Z" fill="#F2A900"/>
<path fill-rule="evenodd" clip-rule="evenodd" d="M346.259 437.625C346.353 437.622 346.431 437.695 346.435 437.788L346.679 444.218C346.683 444.311 346.61 444.39 346.516 444.394C346.423 444.397 346.344 444.324 346.34 444.231L346.096 437.801C346.092 437.708 346.165 437.629 346.259 437.625Z" fill="#F2A900"/>
<path fill-rule="evenodd" clip-rule="evenodd" d="M337.576 437.625C337.67 437.627 337.744 437.705 337.742 437.799L337.586 444.228C337.583 444.322 337.505 444.396 337.412 444.394C337.318 444.392 337.244 444.314 337.246 444.22L337.402 437.791C337.405 437.697 337.482 437.623 337.576 437.625Z" fill="#F2A900"/>
<path fill-rule="evenodd" clip-rule="evenodd" d="M328.919 437.063C329.012 437.071 329.081 437.154 329.073 437.247L328.517 443.663C328.508 443.756 328.426 443.825 328.333 443.817C328.239 443.809 328.17 443.727 328.178 443.633L328.735 437.218C328.743 437.124 328.825 437.055 328.919 437.063Z" fill="#F2A900"/>
<path fill-rule="evenodd" clip-rule="evenodd" d="M320.314 436.01C320.406 436.024 320.47 436.11 320.456 436.203L319.492 442.564C319.478 442.657 319.391 442.721 319.299 442.707C319.206 442.693 319.142 442.606 319.156 442.514L320.12 436.152C320.134 436.059 320.221 435.996 320.314 436.01Z" fill="#F2A900"/>
<path fill-rule="evenodd" clip-rule="evenodd" d="M311.795 434.371C311.887 434.391 311.945 434.481 311.925 434.573L310.56 440.86C310.54 440.951 310.45 441.01 310.358 440.99C310.267 440.97 310.209 440.879 310.229 440.788L311.593 434.501C311.613 434.409 311.703 434.351 311.795 434.371Z" fill="#F2A900"/>
<path fill-rule="evenodd" clip-rule="evenodd" d="M303.393 432.233C303.483 432.259 303.535 432.353 303.509 432.443L301.751 438.634C301.725 438.725 301.632 438.777 301.541 438.751C301.451 438.726 301.399 438.632 301.424 438.542L303.183 432.35C303.208 432.26 303.302 432.207 303.393 432.233Z" fill="#F2A900"/>
<path fill-rule="evenodd" clip-rule="evenodd" d="M295.139 429.564C295.228 429.596 295.274 429.693 295.243 429.781L293.097 435.851C293.066 435.939 292.969 435.985 292.881 435.954C292.792 435.923 292.746 435.826 292.777 435.737L294.923 429.668C294.954 429.58 295.051 429.533 295.139 429.564Z" fill="#F2A900"/>
<path fill-rule="evenodd" clip-rule="evenodd" d="M287.071 426.365C287.158 426.402 287.198 426.502 287.161 426.588L284.642 432.508C284.606 432.594 284.506 432.634 284.42 432.598C284.333 432.561 284.293 432.461 284.33 432.375L286.849 426.455C286.886 426.369 286.985 426.328 287.071 426.365Z" fill="#F2A900"/>
<path fill-rule="evenodd" clip-rule="evenodd" d="M279.213 422.698C279.297 422.74 279.331 422.842 279.289 422.926L276.404 428.676C276.361 428.76 276.259 428.794 276.176 428.752C276.092 428.71 276.058 428.608 276.1 428.524L278.986 422.773C279.028 422.69 279.13 422.656 279.213 422.698Z" fill="#F2A900"/>
<path fill-rule="evenodd" clip-rule="evenodd" d="M271.609 418.507C271.69 418.555 271.717 418.659 271.67 418.74L268.432 424.3C268.384 424.381 268.281 424.408 268.2 424.361C268.119 424.314 268.091 424.21 268.138 424.129L271.377 418.569C271.424 418.488 271.528 418.46 271.609 418.507Z" fill="#F2A900"/>
<path fill-rule="evenodd" clip-rule="evenodd" d="M264.285 413.849C264.362 413.901 264.383 414.007 264.331 414.085L260.746 419.428C260.694 419.506 260.589 419.526 260.511 419.474C260.433 419.422 260.412 419.316 260.464 419.239L264.049 413.895C264.101 413.818 264.207 413.797 264.285 413.849Z" fill="#F2A900"/>
<path fill-rule="evenodd" clip-rule="evenodd" d="M257.271 408.769C257.346 408.826 257.36 408.933 257.303 409.007L253.392 414.12C253.335 414.194 253.229 414.208 253.155 414.151C253.08 414.094 253.066 413.988 253.123 413.913L257.033 408.801C257.09 408.727 257.197 408.712 257.271 408.769Z" fill="#F2A900"/>
<path fill-rule="evenodd" clip-rule="evenodd" d="M250.581 403.237C250.652 403.299 250.659 403.406 250.598 403.477L246.368 408.331C246.306 408.401 246.199 408.409 246.129 408.347C246.058 408.286 246.05 408.178 246.112 408.108L250.342 403.254C250.403 403.183 250.511 403.175 250.581 403.237Z" fill="#F2A900"/>
<path fill-rule="evenodd" clip-rule="evenodd" d="M244.26 397.283C244.326 397.349 244.327 397.457 244.261 397.523L239.74 402.106C239.674 402.173 239.566 402.173 239.5 402.108C239.433 402.042 239.432 401.934 239.498 401.868L244.02 397.285C244.086 397.218 244.193 397.217 244.26 397.283Z" fill="#F2A900"/>
<path fill-rule="evenodd" clip-rule="evenodd" d="M238.315 390.979C238.377 391.049 238.371 391.156 238.301 391.218L233.501 395.502C233.432 395.565 233.324 395.559 233.262 395.489C233.199 395.419 233.206 395.311 233.275 395.249L238.075 390.965C238.145 390.903 238.253 390.909 238.315 390.979Z" fill="#F2A900"/>
<path fill-rule="evenodd" clip-rule="evenodd" d="M232.785 384.291C232.843 384.365 232.83 384.472 232.756 384.53L227.698 388.508C227.625 388.566 227.518 388.553 227.46 388.48C227.402 388.406 227.415 388.299 227.489 388.241L232.547 384.263C232.62 384.205 232.727 384.218 232.785 384.291Z" fill="#F2A900"/>
<path fill-rule="evenodd" clip-rule="evenodd" d="M227.682 377.284C227.735 377.362 227.716 377.467 227.639 377.52L222.336 381.173C222.259 381.226 222.153 381.207 222.1 381.13C222.047 381.052 222.067 380.947 222.144 380.894L227.446 377.241C227.523 377.188 227.629 377.207 227.682 377.284Z" fill="#F2A900"/>
<path fill-rule="evenodd" clip-rule="evenodd" d="M223.034 369.965C223.082 370.046 223.056 370.15 222.976 370.198L217.456 373.505C217.376 373.553 217.272 373.527 217.223 373.446C217.175 373.366 217.201 373.261 217.282 373.213L222.801 369.907C222.882 369.859 222.986 369.885 223.034 369.965Z" fill="#F2A900"/>
<path fill-rule="evenodd" clip-rule="evenodd" d="M218.855 362.334C218.898 362.417 218.866 362.52 218.783 362.563L213.066 365.516C212.983 365.559 212.88 365.526 212.837 365.443C212.794 365.36 212.827 365.257 212.91 365.214L218.627 362.261C218.71 362.218 218.812 362.251 218.855 362.334Z" fill="#F2A900"/>
<path fill-rule="evenodd" clip-rule="evenodd" d="M215.159 354.492C215.196 354.578 215.157 354.678 215.072 354.716L209.185 357.309C209.1 357.347 209 357.308 208.962 357.222C208.924 357.137 208.963 357.036 209.049 356.999L214.935 354.405C215.021 354.367 215.121 354.406 215.159 354.492Z" fill="#F2A900"/>
<path fill-rule="evenodd" clip-rule="evenodd" d="M211.964 346.432C211.997 346.52 211.951 346.617 211.863 346.649L205.828 348.863C205.74 348.895 205.642 348.85 205.61 348.762C205.578 348.674 205.623 348.576 205.711 348.544L211.747 346.331C211.835 346.298 211.932 346.344 211.964 346.432Z" fill="#F2A900"/>
<path fill-rule="evenodd" clip-rule="evenodd" d="M209.284 338.176C209.311 338.266 209.26 338.361 209.17 338.387L203.005 340.213C202.915 340.24 202.821 340.189 202.794 340.099C202.768 340.009 202.819 339.915 202.909 339.888L209.073 338.062C209.163 338.035 209.258 338.086 209.284 338.176Z" fill="#F2A900"/>
<path fill-rule="evenodd" clip-rule="evenodd" d="M207.132 329.804C207.153 329.895 207.096 329.986 207.005 330.007L200.731 331.453C200.64 331.474 200.549 331.417 200.528 331.326C200.507 331.235 200.564 331.143 200.655 331.122L206.928 329.676C207.02 329.655 207.111 329.712 207.132 329.804Z" fill="#F2A900"/>
<path fill-rule="evenodd" clip-rule="evenodd" d="M205.506 321.26C205.522 321.352 205.459 321.439 205.366 321.454L199.012 322.493C198.919 322.508 198.832 322.446 198.817 322.353C198.802 322.261 198.864 322.173 198.957 322.158L205.312 321.119C205.404 321.104 205.491 321.167 205.506 321.26Z" fill="#F2A900"/>
<path fill-rule="evenodd" clip-rule="evenodd" d="M204.426 312.645C204.436 312.738 204.368 312.821 204.275 312.831L197.872 313.476C197.779 313.485 197.696 313.417 197.686 313.324C197.677 313.231 197.745 313.147 197.838 313.138L204.241 312.493C204.334 312.484 204.417 312.552 204.426 312.645Z" fill="#F2A900"/>
<path fill-rule="evenodd" clip-rule="evenodd" d="M203.884 303.992C203.887 304.085 203.814 304.164 203.721 304.167L197.291 304.405C197.198 304.409 197.119 304.335 197.115 304.242C197.112 304.148 197.185 304.069 197.279 304.066L203.708 303.828C203.802 303.825 203.88 303.898 203.884 303.992Z" fill="#F2A900"/>
<path fill-rule="evenodd" clip-rule="evenodd" d="M197.115 295.158C197.118 295.064 197.196 294.99 197.289 294.992L203.719 295.155C203.812 295.158 203.886 295.235 203.884 295.329C203.882 295.423 203.804 295.497 203.71 295.495L197.281 295.332C197.187 295.329 197.113 295.251 197.115 295.158Z" fill="#F2A900"/>
<path fill-rule="evenodd" clip-rule="evenodd" d="M197.686 286.038C197.695 285.944 197.777 285.875 197.87 285.883L204.279 286.454C204.373 286.462 204.442 286.545 204.433 286.638C204.425 286.731 204.343 286.8 204.249 286.792L197.84 286.222C197.747 286.213 197.678 286.131 197.686 286.038Z" fill="#F2A900"/>
<path fill-rule="evenodd" clip-rule="evenodd" d="M198.826 277.011C198.84 276.919 198.927 276.855 199.02 276.869L205.381 277.84C205.474 277.854 205.537 277.941 205.523 278.033C205.509 278.126 205.423 278.19 205.33 278.176L198.968 277.205C198.876 277.191 198.812 277.104 198.826 277.011Z" fill="#F2A900"/>
<path fill-rule="evenodd" clip-rule="evenodd" d="M200.537 268.087C200.557 267.995 200.647 267.937 200.739 267.957L207.026 269.322C207.117 269.342 207.176 269.432 207.156 269.524C207.136 269.615 207.045 269.673 206.954 269.653L200.667 268.289C200.575 268.269 200.517 268.178 200.537 268.087Z" fill="#F2A900"/>
<path fill-rule="evenodd" clip-rule="evenodd" d="M202.801 259.287C202.827 259.197 202.921 259.145 203.011 259.171L209.196 260.929C209.286 260.955 209.339 261.048 209.313 261.139C209.287 261.229 209.193 261.281 209.103 261.255L202.918 259.497C202.828 259.471 202.776 259.378 202.801 259.287Z" fill="#F2A900"/>
<path fill-rule="evenodd" clip-rule="evenodd" d="M205.619 250.613C205.651 250.525 205.748 250.478 205.836 250.51L211.899 252.662C211.987 252.693 212.033 252.79 212.002 252.879C211.97 252.967 211.873 253.013 211.785 252.982L205.722 250.83C205.634 250.798 205.588 250.701 205.619 250.613Z" fill="#F2A900"/>
<path fill-rule="evenodd" clip-rule="evenodd" d="M208.971 242.158C209.007 242.072 209.107 242.032 209.193 242.068L215.113 244.587C215.2 244.624 215.24 244.723 215.203 244.81C215.166 244.896 215.067 244.936 214.981 244.899L209.06 242.381C208.974 242.344 208.934 242.244 208.971 242.158Z" fill="#F2A900"/>
<path fill-rule="evenodd" clip-rule="evenodd" d="M212.844 233.914C212.886 233.83 212.988 233.796 213.072 233.838L218.823 236.731C218.906 236.773 218.94 236.875 218.898 236.959C218.856 237.042 218.754 237.076 218.67 237.034L212.92 234.142C212.836 234.1 212.802 233.998 212.844 233.914Z" fill="#F2A900"/>
<path fill-rule="evenodd" clip-rule="evenodd" d="M217.24 225.936C217.287 225.855 217.391 225.827 217.472 225.875L223.026 229.12C223.107 229.167 223.134 229.271 223.087 229.352C223.039 229.433 222.935 229.46 222.854 229.413L217.301 226.168C217.22 226.121 217.193 226.017 217.24 225.936Z" fill="#F2A900"/>
<path fill-rule="evenodd" clip-rule="evenodd" d="M222.125 218.247C222.177 218.169 222.282 218.148 222.36 218.201L227.697 221.792C227.774 221.845 227.795 221.95 227.743 222.028C227.69 222.106 227.585 222.126 227.507 222.074L222.171 218.482C222.093 218.43 222.072 218.325 222.125 218.247Z" fill="#F2A900"/>
<path fill-rule="evenodd" clip-rule="evenodd" d="M227.467 210.91C227.524 210.836 227.63 210.822 227.705 210.879L232.81 214.796C232.885 214.853 232.899 214.96 232.842 215.034C232.784 215.109 232.678 215.123 232.604 215.066L227.498 211.148C227.424 211.091 227.41 210.985 227.467 210.91Z" fill="#F2A900"/>
<path fill-rule="evenodd" clip-rule="evenodd" d="M233.278 203.894C233.34 203.823 233.447 203.816 233.518 203.878L238.365 208.107C238.436 208.169 238.443 208.276 238.381 208.347C238.32 208.418 238.213 208.425 238.142 208.363L233.294 204.134C233.224 204.072 233.217 203.965 233.278 203.894Z" fill="#F2A900"/>
<path fill-rule="evenodd" clip-rule="evenodd" d="M239.516 197.261C239.582 197.195 239.689 197.194 239.756 197.26L244.325 201.782C244.392 201.848 244.392 201.955 244.326 202.022C244.26 202.088 244.153 202.089 244.086 202.023L239.517 197.501C239.451 197.435 239.45 197.328 239.516 197.261Z" fill="#F2A900"/>
<path fill-rule="evenodd" clip-rule="evenodd" d="M246.153 191.043C246.222 190.981 246.33 190.987 246.392 191.057L250.676 195.864C250.739 195.934 250.732 196.041 250.662 196.103C250.592 196.166 250.485 196.159 250.423 196.089L246.139 191.283C246.076 191.213 246.083 191.105 246.153 191.043Z" fill="#F2A900"/>
<path fill-rule="evenodd" clip-rule="evenodd" d="M253.171 185.247C253.244 185.189 253.351 185.202 253.409 185.276L257.374 190.341C257.432 190.415 257.419 190.521 257.345 190.579C257.271 190.637 257.164 190.624 257.106 190.55L253.142 185.485C253.084 185.411 253.097 185.305 253.171 185.247Z" fill="#F2A900"/>
<path fill-rule="evenodd" clip-rule="evenodd" d="M260.537 179.881C260.614 179.828 260.72 179.848 260.773 179.925L264.412 185.228C264.465 185.305 264.445 185.411 264.368 185.464C264.29 185.517 264.185 185.497 264.132 185.42L260.493 180.117C260.44 180.04 260.459 179.934 260.537 179.881Z" fill="#F2A900"/>
<path fill-rule="evenodd" clip-rule="evenodd" d="M268.223 175.032C268.304 174.984 268.408 175.01 268.456 175.091L271.756 180.617C271.804 180.697 271.777 180.802 271.697 180.85C271.616 180.898 271.512 180.871 271.464 180.791L268.165 175.265C268.117 175.184 268.143 175.08 268.223 175.032Z" fill="#F2A900"/>
<path fill-rule="evenodd" clip-rule="evenodd" d="M276.209 170.652C276.293 170.609 276.395 170.642 276.438 170.725L279.384 176.448C279.427 176.532 279.394 176.634 279.311 176.677C279.228 176.72 279.125 176.687 279.083 176.604L276.136 170.88C276.093 170.797 276.126 170.695 276.209 170.652Z" fill="#F2A900"/>
<path fill-rule="evenodd" clip-rule="evenodd" d="M284.444 166.788C284.529 166.75 284.629 166.789 284.667 166.875L287.247 172.768C287.285 172.854 287.245 172.954 287.16 172.992C287.074 173.029 286.974 172.99 286.936 172.904L284.356 167.011C284.318 166.925 284.358 166.825 284.444 166.788Z" fill="#F2A900"/>
<path fill-rule="evenodd" clip-rule="evenodd" d="M292.904 163.456C292.992 163.423 293.09 163.469 293.122 163.557L295.335 169.599C295.368 169.687 295.322 169.785 295.234 169.817C295.146 169.849 295.049 169.804 295.017 169.716L292.803 163.673C292.771 163.585 292.816 163.488 292.904 163.456Z" fill="#F2A900"/>
<path fill-rule="evenodd" clip-rule="evenodd" d="M301.567 160.648C301.657 160.621 301.751 160.672 301.778 160.762L303.604 166.934C303.631 167.024 303.579 167.118 303.49 167.145C303.4 167.171 303.305 167.12 303.279 167.03L301.452 160.859C301.426 160.769 301.477 160.674 301.567 160.648Z" fill="#F2A900"/>
<path fill-rule="evenodd" clip-rule="evenodd" d="M310.382 158.364C310.473 158.343 310.564 158.4 310.585 158.491L312.018 164.765C312.039 164.856 311.981 164.947 311.89 164.968C311.799 164.989 311.708 164.932 311.687 164.84L310.254 158.567C310.233 158.476 310.291 158.385 310.382 158.364Z" fill="#F2A900"/>
<path fill-rule="evenodd" clip-rule="evenodd" d="M319.322 156.674C319.415 156.659 319.502 156.722 319.517 156.814L320.556 163.169C320.571 163.261 320.508 163.349 320.416 163.364C320.323 163.379 320.236 163.316 320.221 163.224L319.182 156.869C319.167 156.777 319.23 156.689 319.322 156.674Z" fill="#F2A900"/>
<path fill-rule="evenodd" clip-rule="evenodd" d="M328.356 155.556C328.449 155.546 328.533 155.614 328.542 155.708L329.173 162.11C329.182 162.203 329.114 162.286 329.021 162.296C328.928 162.305 328.845 162.237 328.835 162.143L328.204 155.741C328.195 155.648 328.263 155.565 328.356 155.556Z" fill="#F2A900"/>
<path fill-rule="evenodd" clip-rule="evenodd" d="M337.445 154.992C337.539 154.989 337.617 155.062 337.621 155.156L337.851 161.585C337.855 161.679 337.782 161.758 337.688 161.761C337.594 161.764 337.516 161.691 337.512 161.597L337.281 155.168C337.278 155.074 337.351 154.996 337.445 154.992Z" fill="#F2A900"/>
<path fill-rule="evenodd" clip-rule="evenodd" d="M346.542 154.992C346.636 154.995 346.71 155.073 346.707 155.167L346.531 161.603C346.528 161.696 346.45 161.77 346.356 161.768C346.263 161.765 346.189 161.687 346.191 161.593L346.368 155.157C346.371 155.064 346.449 154.99 346.542 154.992Z" fill="#F2A900"/>
<path fill-rule="evenodd" clip-rule="evenodd" d="M355.621 155.594C355.715 155.603 355.784 155.685 355.775 155.779L355.198 162.188C355.19 162.281 355.107 162.35 355.014 162.342C354.921 162.333 354.852 162.251 354.86 162.157L355.437 155.748C355.446 155.655 355.528 155.586 355.621 155.594Z" fill="#F2A900"/>
<path fill-rule="evenodd" clip-rule="evenodd" d="M364.65 156.744C364.742 156.758 364.806 156.845 364.792 156.938L363.814 163.299C363.8 163.392 363.713 163.455 363.621 163.441C363.528 163.427 363.464 163.34 363.479 163.248L364.456 156.886C364.47 156.794 364.557 156.73 364.65 156.744Z" fill="#F2A900"/>
<path fill-rule="evenodd" clip-rule="evenodd" d="M373.591 158.473C373.683 158.493 373.741 158.583 373.721 158.675L372.349 164.961C372.329 165.053 372.239 165.111 372.147 165.091C372.056 165.071 371.998 164.981 372.018 164.889L373.389 158.602C373.409 158.511 373.499 158.453 373.591 158.473Z" fill="#F2A900"/>
<path fill-rule="evenodd" clip-rule="evenodd" d="M382.403 160.749C382.493 160.775 382.545 160.869 382.519 160.959L380.747 167.144C380.721 167.234 380.627 167.286 380.537 167.26C380.447 167.234 380.395 167.14 380.421 167.05L382.193 160.865C382.219 160.775 382.312 160.723 382.403 160.749Z" fill="#F2A900"/>
<path fill-rule="evenodd" clip-rule="evenodd" d="M391.058 163.557C391.146 163.588 391.192 163.685 391.161 163.774L389.002 169.836C388.97 169.925 388.873 169.971 388.785 169.939C388.696 169.908 388.65 169.811 388.682 169.722L390.841 163.66C390.872 163.571 390.969 163.525 391.058 163.557Z" fill="#F2A900"/>
<path fill-rule="evenodd" clip-rule="evenodd" d="M399.513 166.928C399.599 166.965 399.639 167.064 399.602 167.151L397.07 173.071C397.033 173.157 396.933 173.197 396.847 173.16C396.761 173.123 396.721 173.023 396.758 172.937L399.29 167.017C399.327 166.931 399.427 166.891 399.513 166.928Z" fill="#F2A900"/>
<path fill-rule="evenodd" clip-rule="evenodd" d="M407.736 170.823C407.82 170.865 407.853 170.967 407.811 171.051L404.919 176.801C404.877 176.885 404.775 176.919 404.691 176.877C404.607 176.834 404.574 176.732 404.616 176.649L407.508 170.898C407.55 170.814 407.652 170.781 407.736 170.823Z" fill="#F2A900"/>
<path fill-rule="evenodd" clip-rule="evenodd" d="M415.715 175.242C415.796 175.289 415.823 175.393 415.775 175.474L412.523 181.028C412.476 181.109 412.372 181.136 412.291 181.089C412.21 181.041 412.183 180.937 412.23 180.856L415.482 175.303C415.53 175.222 415.634 175.195 415.715 175.242Z" fill="#F2A900"/>
<path fill-rule="evenodd" clip-rule="evenodd" d="M423.382 180.092C423.46 180.144 423.481 180.249 423.428 180.327L419.83 185.663C419.778 185.741 419.672 185.762 419.594 185.709C419.517 185.657 419.496 185.551 419.549 185.474L423.147 180.137C423.199 180.06 423.305 180.039 423.382 180.092Z" fill="#F2A900"/>
<path fill-rule="evenodd" clip-rule="evenodd" d="M430.737 185.496C430.811 185.553 430.825 185.66 430.767 185.734L426.843 190.833C426.786 190.907 426.68 190.921 426.605 190.864C426.531 190.807 426.517 190.7 426.574 190.626L430.498 185.527C430.556 185.453 430.662 185.439 430.737 185.496Z" fill="#F2A900"/>
<path fill-rule="evenodd" clip-rule="evenodd" d="M437.741 191.292C437.811 191.354 437.818 191.461 437.757 191.532L433.52 196.372C433.458 196.443 433.351 196.45 433.281 196.388C433.21 196.326 433.203 196.219 433.265 196.149L437.501 191.308C437.563 191.237 437.67 191.23 437.741 191.292Z" fill="#F2A900"/>
<path fill-rule="evenodd" clip-rule="evenodd" d="M444.355 197.534C444.421 197.6 444.422 197.707 444.356 197.774L439.827 202.343C439.761 202.409 439.654 202.41 439.587 202.344C439.521 202.278 439.52 202.17 439.586 202.104L444.115 197.535C444.181 197.468 444.288 197.468 444.355 197.534Z" fill="#F2A900"/>
<path fill-rule="evenodd" clip-rule="evenodd" d="M450.576 204.174C450.638 204.244 450.632 204.351 450.562 204.414L445.755 208.691C445.685 208.753 445.578 208.747 445.516 208.677C445.453 208.607 445.46 208.5 445.53 208.437L450.336 204.16C450.406 204.098 450.514 204.104 450.576 204.174Z" fill="#F2A900"/>
<path fill-rule="evenodd" clip-rule="evenodd" d="M456.367 211.19C456.425 211.264 456.412 211.371 456.338 211.429L451.266 215.387C451.192 215.444 451.086 215.431 451.028 215.357C450.97 215.283 450.984 215.177 451.057 215.119L456.129 211.161C456.203 211.103 456.31 211.116 456.367 211.19Z" fill="#F2A900"/>
<path fill-rule="evenodd" clip-rule="evenodd" d="M461.705 218.566C461.758 218.643 461.738 218.749 461.661 218.802L456.352 222.441C456.274 222.494 456.169 222.474 456.116 222.397C456.063 222.32 456.082 222.214 456.16 222.161L461.469 218.522C461.546 218.469 461.652 218.489 461.705 218.566Z" fill="#F2A900"/>
<path fill-rule="evenodd" clip-rule="evenodd" d="M471.79 234.818C471.959 235.152 471.825 235.561 471.491 235.73L465.747 238.636C465.413 238.805 465.004 238.671 464.835 238.337C464.666 238.002 464.8 237.594 465.134 237.424L470.878 234.519C471.213 234.349 471.621 234.483 471.79 234.818Z" fill="#F2A900"/>
<path fill-rule="evenodd" clip-rule="evenodd" d="M481.743 261.968C481.793 262.149 481.687 262.336 481.506 262.386L475.301 264.096C475.12 264.146 474.933 264.04 474.883 263.859C474.834 263.679 474.94 263.492 475.12 263.442L481.326 261.731C481.506 261.681 481.693 261.787 481.743 261.968Z" fill="#F2A900"/>
<path fill-rule="evenodd" clip-rule="evenodd" d="M486.283 290.486C486.29 290.58 486.219 290.661 486.126 290.667L479.703 291.115C479.61 291.122 479.528 291.051 479.522 290.958C479.515 290.864 479.586 290.783 479.679 290.777L486.102 290.329C486.195 290.322 486.277 290.393 486.283 290.486Z" fill="#F2A900"/>
<path fill-rule="evenodd" clip-rule="evenodd" d="M478.354 318.397C478.379 318.211 478.549 318.08 478.735 318.104L485.117 318.94C485.303 318.964 485.434 319.134 485.41 319.32C485.385 319.506 485.215 319.637 485.029 319.613L478.647 318.778C478.461 318.753 478.33 318.583 478.354 318.397Z" fill="#F2A900"/>
<path fill-rule="evenodd" clip-rule="evenodd" d="M472.093 345.177C472.124 345.089 472.22 345.041 472.309 345.072L478.399 347.156C478.487 347.186 478.535 347.283 478.504 347.372C478.474 347.46 478.377 347.507 478.289 347.477L472.199 345.393C472.11 345.363 472.063 345.266 472.093 345.177Z" fill="#F2A900"/>
<path fill-rule="evenodd" clip-rule="evenodd" d="M460.49 370.108C460.537 370.027 460.641 369.999 460.722 370.047L466.276 373.292C466.357 373.339 466.384 373.443 466.337 373.524C466.289 373.605 466.185 373.632 466.104 373.585L460.551 370.34C460.47 370.292 460.443 370.188 460.49 370.108Z" fill="#F2A900"/>
<path fill-rule="evenodd" clip-rule="evenodd" d="M443.795 391.914C444.045 391.635 444.474 391.61 444.754 391.86L449.554 396.144C449.834 396.394 449.858 396.823 449.608 397.103C449.359 397.382 448.93 397.407 448.65 397.157L443.85 392.873C443.57 392.623 443.546 392.194 443.795 391.914Z" fill="#F2A900"/>
<path fill-rule="evenodd" clip-rule="evenodd" d="M423.797 410.698C423.872 410.642 423.978 410.657 424.034 410.732L427.884 415.878C427.94 415.953 427.924 416.06 427.849 416.116C427.774 416.172 427.668 416.157 427.612 416.082L423.762 410.935C423.706 410.86 423.722 410.754 423.797 410.698Z" fill="#F2A900"/>
<path fill-rule="evenodd" clip-rule="evenodd" d="M400.163 424.735C400.248 424.695 400.349 424.731 400.39 424.816L403.146 430.627C403.186 430.712 403.15 430.813 403.065 430.853C402.981 430.894 402.879 430.858 402.839 430.773L400.083 424.961C400.043 424.877 400.079 424.775 400.163 424.735Z" fill="#F2A900"/>
<path fill-rule="evenodd" clip-rule="evenodd" d="M374.172 433.643C374.354 433.598 374.538 433.709 374.583 433.891L376.131 440.137C376.176 440.319 376.065 440.503 375.883 440.548C375.701 440.593 375.517 440.482 375.472 440.3L373.924 434.054C373.879 433.872 373.99 433.688 374.172 433.643Z" fill="#F2A900"/>
<path fill-rule="evenodd" clip-rule="evenodd" d="M346.957 437.414C347.145 437.406 347.303 437.551 347.311 437.738L347.597 444.168C347.605 444.355 347.46 444.514 347.272 444.522C347.085 444.53 346.927 444.385 346.918 444.198L346.633 437.769C346.625 437.581 346.77 437.423 346.957 437.414Z" fill="#F2A900"/>
<path fill-rule="evenodd" clip-rule="evenodd" d="M319.599 435.391C319.969 435.449 320.222 435.797 320.164 436.167L319.166 442.522C319.108 442.892 318.761 443.145 318.39 443.087C318.02 443.029 317.767 442.682 317.825 442.311L318.823 435.956C318.881 435.586 319.228 435.333 319.599 435.391Z" fill="#F2A900"/>
<path fill-rule="evenodd" clip-rule="evenodd" d="M292.962 428.768C293.049 428.801 293.094 428.899 293.062 428.987L290.821 435.016C290.788 435.103 290.691 435.148 290.603 435.115C290.515 435.083 290.47 434.985 290.503 434.897L292.743 428.868C292.776 428.781 292.874 428.736 292.962 428.768Z" fill="#F2A900"/>
<path fill-rule="evenodd" clip-rule="evenodd" d="M268.344 416.51C268.424 416.559 268.448 416.664 268.399 416.744L265.011 422.209C264.962 422.289 264.857 422.313 264.778 422.264C264.698 422.214 264.673 422.11 264.723 422.03L268.111 416.565C268.16 416.485 268.265 416.46 268.344 416.51Z" fill="#F2A900"/>
<path fill-rule="evenodd" clip-rule="evenodd" d="M246.761 399.499C246.897 399.627 246.903 399.842 246.775 399.978L242.362 404.663C242.233 404.8 242.019 404.806 241.882 404.677C241.746 404.549 241.739 404.334 241.868 404.198L246.281 399.513C246.409 399.376 246.624 399.37 246.761 399.499Z" fill="#F2A900"/>
<path fill-rule="evenodd" clip-rule="evenodd" d="M229.129 378.466C229.346 378.772 229.274 379.196 228.968 379.413L223.72 383.133C223.414 383.35 222.99 383.278 222.774 382.972C222.557 382.666 222.629 382.242 222.935 382.025L228.183 378.305C228.489 378.088 228.912 378.16 229.129 378.466Z" fill="#F2A900"/>
<path fill-rule="evenodd" clip-rule="evenodd" d="M215.434 354.694C215.51 354.866 215.432 355.066 215.261 355.142L209.381 357.742C209.21 357.818 209.009 357.741 208.933 357.569C208.858 357.398 208.935 357.197 209.107 357.122L214.986 354.521C215.157 354.445 215.358 354.523 215.434 354.694Z" fill="#F2A900"/>
<path fill-rule="evenodd" clip-rule="evenodd" d="M206.869 328.61C206.89 328.701 206.832 328.792 206.74 328.812L200.46 330.197C200.369 330.217 200.278 330.159 200.258 330.068C200.238 329.976 200.296 329.886 200.387 329.866L206.667 328.481C206.759 328.46 206.849 328.518 206.869 328.61Z" fill="#F2A900"/>
<path fill-rule="evenodd" clip-rule="evenodd" d="M203.987 301.287C203.99 301.474 203.841 301.629 203.653 301.632L197.224 301.741C197.037 301.744 196.882 301.594 196.879 301.407C196.876 301.219 197.025 301.065 197.213 301.062L203.642 300.953C203.829 300.95 203.984 301.099 203.987 301.287Z" fill="#F2A900"/>
<path fill-rule="evenodd" clip-rule="evenodd" d="M199.085 272.549C199.153 272.18 199.507 271.936 199.876 272.003L206.203 273.164C206.572 273.232 206.816 273.586 206.749 273.955C206.681 274.324 206.327 274.568 205.958 274.5L199.631 273.339C199.262 273.271 199.018 272.918 199.085 272.549Z" fill="#F2A900"/>
<path fill-rule="evenodd" clip-rule="evenodd" d="M207.62 244.932C207.69 244.758 207.888 244.673 208.062 244.743L214.029 247.14C214.203 247.21 214.288 247.407 214.218 247.581C214.148 247.755 213.95 247.84 213.776 247.77L207.809 245.373C207.635 245.303 207.55 245.106 207.62 244.932Z" fill="#F2A900"/>
<path fill-rule="evenodd" clip-rule="evenodd" d="M221.28 219.514C221.331 219.436 221.437 219.414 221.515 219.465L226.892 223.003C226.97 223.054 226.992 223.159 226.941 223.238C226.889 223.316 226.784 223.338 226.705 223.286L221.328 219.749C221.25 219.698 221.228 219.592 221.28 219.514Z" fill="#F2A900"/>
<path fill-rule="evenodd" clip-rule="evenodd" d="M239.46 197.061C239.592 196.928 239.807 196.927 239.94 197.059L244.509 201.588C244.642 201.72 244.643 201.935 244.511 202.068C244.379 202.201 244.164 202.202 244.031 202.07L239.462 197.542C239.329 197.41 239.328 197.195 239.46 197.061Z" fill="#F2A900"/>
<path fill-rule="evenodd" clip-rule="evenodd" d="M261.648 178.561C261.96 178.352 262.382 178.435 262.59 178.746L266.175 184.089C266.384 184.401 266.301 184.822 265.99 185.031C265.678 185.24 265.256 185.157 265.048 184.846L261.463 179.503C261.254 179.191 261.337 178.769 261.648 178.561Z" fill="#F2A900"/>
<path fill-rule="evenodd" clip-rule="evenodd" d="M287.459 165.528C287.545 165.493 287.645 165.534 287.68 165.621L290.131 171.568C290.167 171.655 290.126 171.754 290.039 171.79C289.952 171.825 289.853 171.784 289.817 171.697L287.366 165.75C287.331 165.663 287.372 165.564 287.459 165.528Z" fill="#F2A900"/>
<path fill-rule="evenodd" clip-rule="evenodd" d="M315.117 157.241C315.301 157.205 315.479 157.326 315.515 157.51L316.73 163.831C316.765 164.015 316.645 164.193 316.461 164.228C316.277 164.263 316.099 164.143 316.063 163.959L314.848 157.638C314.813 157.454 314.933 157.276 315.117 157.241Z" fill="#F2A900"/>
<path d="M351.367 443.288C352.514 443.288 353.444 442.358 353.444 441.21C353.444 440.063 352.514 439.133 351.367 439.133C350.219 439.133 349.289 440.063 349.289 441.21C349.289 442.358 350.219 443.288 351.367 443.288Z" fill="#F2A900"/>
<path d="M432.263 410.999C433.41 410.999 434.341 410.069 434.341 408.921C434.341 407.774 433.41 406.844 432.263 406.844C431.116 406.844 430.186 407.774 430.186 408.921C430.186 410.069 431.116 410.999 432.263 410.999Z" fill="#F2A900"/>
<path d="M479.056 337.569C480.203 337.569 481.134 336.639 481.134 335.492C481.134 334.344 480.203 333.414 479.056 333.414C477.909 333.414 476.979 334.344 476.979 335.492C476.979 336.639 477.909 337.569 479.056 337.569Z" fill="#F2A900"/>
<path d="M472.636 247.78C473.783 247.78 474.714 246.85 474.714 245.702C474.714 244.555 473.783 243.625 472.636 243.625C471.489 243.625 470.559 244.555 470.559 245.702C470.559 246.85 471.489 247.78 472.636 247.78Z" fill="#F2A900"/>
<path d="M417.997 182.358C419.145 182.358 420.075 181.428 420.075 180.281C420.075 179.133 419.145 178.203 417.997 178.203C416.85 178.203 415.92 179.133 415.92 180.281C415.92 181.428 416.85 182.358 417.997 182.358Z" fill="#F2A900"/>
<path d="M333.952 160.413C335.1 160.413 336.03 159.483 336.03 158.335C336.03 157.188 335.1 156.258 333.952 156.258C332.805 156.258 331.875 157.188 331.875 158.335C331.875 159.483 332.805 160.413 333.952 160.413Z" fill="#F2A900"/>
<path d="M258.853 187.405C260 187.405 260.93 186.475 260.93 185.327C260.93 184.18 260 183.25 258.853 183.25C257.706 183.25 256.775 184.18 256.775 185.327C256.775 186.475 257.706 187.405 258.853 187.405Z" fill="#F2A900"/>
<path d="M207.398 257.358C208.545 257.358 209.475 256.428 209.475 255.281C209.475 254.133 208.545 253.203 207.398 253.203C206.25 253.203 205.32 254.133 205.32 255.281C205.32 256.428 206.25 257.358 207.398 257.358Z" fill="#F2A900"/>
<path d="M205.048 337.053C206.196 337.053 207.126 336.123 207.126 334.976C207.126 333.829 206.196 332.898 205.048 332.898C203.901 332.898 202.971 333.829 202.971 334.976C202.971 336.123 203.901 337.053 205.048 337.053Z" fill="#F2A900"/>
<path d="M259.4 416.725C260.547 416.725 261.477 415.795 261.477 414.648C261.477 413.5 260.547 412.57 259.4 412.57C258.252 412.57 257.322 413.5 257.322 414.648C257.322 415.795 258.252 416.725 259.4 416.725Z" fill="#F2A900"/>
<defs>
<radialGradient id="paint0_radial_479_14519" cx="0" cy="0" r="1" gradientUnits="userSpaceOnUse" gradientTransform="translate(97.7401 250.129) scale(247.976 247.976)">
<stop stop-color="#FEF508"/>
<stop offset="1" stop-color="#F2A900"/>
</radialGradient>
<radialGradient id="paint1_radial_479_14519" cx="0" cy="0" r="1" gradientUnits="userSpaceOnUse" gradientTransform="translate(122.715 186.372) scale(65.0881 65.0881)">
<stop stop-color="#CFA900"/>
<stop offset="1" stop-color="#00B386"/>
</radialGradient>
<radialGradient id="paint2_radial_479_14519" cx="0" cy="0" r="1" gradientUnits="userSpaceOnUse" gradientTransform="translate(199.86 158.902) scale(31.1217)">
<stop stop-color="#CBA900"/>
<stop offset="1" stop-color="#00B386"/>
</radialGradient>
<radialGradient id="paint3_radial_479_14519" cx="0" cy="0" r="1" gradientUnits="userSpaceOnUse" gradientTransform="translate(221.348 179.43) scale(365.056 365.056)">
<stop stop-color="#FEF508"/>
<stop offset="1" stop-color="#F2A900"/>
</radialGradient>
</defs>
</svg>
