<svg width="463" height="463" viewBox="0 0 463 463" fill="none" xmlns="http://www.w3.org/2000/svg">
<rect width="462.643" height="462.643" fill="black"/>
<path d="M276.629 124.019L218.013 223.429H272.178L334.468 124.019H276.629ZM272.141 238.13H217.492L269.732 337.93H334.333L272.141 238.13Z" stroke="#07F2C7" stroke-width="10"/>
<path fill-rule="evenodd" clip-rule="evenodd" d="M118.231 119.019H187.959L252.472 228.429H186.787L118.231 119.019ZM195.027 342.93H118.393L186.816 233.13H252.501L195.027 342.93Z" fill="#07F2C7"/>
<path d="M141.578 134.859H141.436L141.406 134.83V134.688L141.45 134.72V134.787L141.479 134.816H141.535L141.578 134.859Z" fill="#07F2C7"/>
<path d="M141.964 134.765V134.835L141.934 134.865H141.822L141.792 134.835V134.723L141.822 134.693H141.964L141.921 134.736H141.849L141.835 134.751V134.807L141.849 134.822H141.921V134.795H141.861L141.891 134.765H141.964Z" fill="#07F2C7"/>
<path d="M141.681 134.695H141.568L141.538 134.725V134.836L141.568 134.866H141.681L141.71 134.836V134.725L141.681 134.695ZM141.668 134.81L141.654 134.825H141.596L141.581 134.81V134.753L141.596 134.738H141.654L141.668 134.753V134.81Z" fill="#07F2C7"/>
<path d="M142.137 134.693H142.197L142.138 134.787H142.081L142.137 134.693Z" stroke="#07F2C7" stroke-width="0.00148891"/>
<path d="M142.136 134.866H142.196L142.138 134.772H142.081L142.136 134.866Z" stroke="#07F2C7" stroke-width="0.00148891"/>
<path fill-rule="evenodd" clip-rule="evenodd" d="M142.013 134.685H142.073L142.128 134.779L142.078 134.873H142.013L142.072 134.779L142.013 134.685Z" fill="#27F9BB"/>
</svg>
