<svg width="828" height="509" viewBox="0 0 828 509" fill="none" xmlns="http://www.w3.org/2000/svg">
<g filter="url(#filter0_b_7294_15642)">
<g clip-path="url(#clip0_7294_15642)">
<path d="M0 30C0 13.4315 13.4315 0 30 0H798C814.569 0 828 13.4315 828 30V479C828 495.569 814.569 509 798 509H30C13.4315 509 0 495.569 0 479V30Z" fill="url(#paint0_linear_7294_15642)"/>
<g clip-path="url(#clip1_7294_15642)">
<path d="M525.033 391.118L591.33 239.968C591.479 239.63 591.156 239.275 590.805 239.39L436.005 290.26L366.172 439.971C366.015 440.308 366.333 440.671 366.687 440.561L525.033 391.118Z" fill="black" stroke="white" stroke-width="0.939664"/>
<g clip-path="url(#clip2_7294_15642)">
<path d="M507.719 303.223L501.753 327.149C501.375 328.667 500.238 330.369 498.762 331.59L475.732 350.843C474.267 352.073 472.685 352.649 471.602 352.346L454.52 347.693C453.437 347.39 452.988 346.279 453.367 344.761L459.332 320.835C459.711 319.317 460.848 317.615 462.327 316.38L485.371 297.122C486.836 295.892 488.418 295.316 489.501 295.618L506.583 300.272C507.652 300.579 508.101 301.691 507.719 303.223Z" fill="black"/>
<path d="M474.967 330.273L475.819 337.324C475.849 337.51 475.784 337.77 475.646 338.018L467.257 353.743L462.405 352.419L474.061 330.589C474.323 330.1 474.925 329.881 474.967 330.273Z" fill="#7B7B7B"/>
<path d="M472.653 318.705C472.918 318.201 473.521 317.982 473.577 318.369L474.428 325.42C474.455 325.62 474.393 325.866 474.255 326.114L460.5 351.876L455.648 350.553L472.653 318.705Z" fill="#7B7B7B"/>
<path d="M487.198 297.271C487.058 297.322 486.907 297.416 486.763 297.535L461.836 318.372C461.548 318.608 461.326 318.939 461.25 319.243L454.798 345.12C454.722 345.424 454.808 345.642 455.024 345.695L473.495 350.75C473.603 350.776 473.732 350.769 473.872 350.718C474.012 350.667 474.163 350.572 474.307 350.454L499.234 329.617C499.523 329.381 499.745 329.05 499.821 328.746L506.276 302.854C506.352 302.551 506.266 302.332 506.05 302.279L487.575 297.239C487.467 297.213 487.338 297.22 487.198 297.271ZM488.139 293.498C488.909 293.218 489.639 293.149 490.224 293.304L508.699 298.344C509.866 298.669 510.355 299.871 509.944 301.519L503.493 327.397C503.082 329.045 501.845 330.888 500.254 332.217L475.327 353.054C474.536 353.723 473.716 354.206 472.932 354.491C472.148 354.776 471.432 354.84 470.847 354.685L452.371 349.644C451.191 349.325 450.715 348.118 451.13 346.455L457.582 320.578C457.993 318.93 459.229 317.086 460.82 315.758L485.744 294.935C486.545 294.275 487.369 293.778 488.139 293.498Z" fill="white"/>
<path d="M489.219 341.439L488.623 336.529L483.761 341.428L486.616 343.609L489.219 341.439Z" fill="#213147"/>
<path d="M486.058 308.548L491.561 306.545C491.967 306.397 492.28 306.52 492.319 306.874L495.781 335.978L489.236 341.449L485.413 309.4C485.384 309.109 485.708 308.675 486.058 308.548Z" fill="white"/>
<path d="M476.447 312.049L481.949 310.046C482.355 309.898 482.669 310.021 482.708 310.375L486.657 343.6L480.112 349.071L475.816 312.896C475.773 312.61 476.111 312.171 476.447 312.049Z" fill="white"/>
</g>
<path d="M403.761 409.15L414.263 388.819L420.407 386.889L419.735 404.132L416.102 405.273L416.316 401.459L409.638 403.557L407.394 408.008L403.761 409.15ZM411.44 400.022L416.462 398.445L416.913 390.006L416.432 390.157L411.44 400.022ZM422.08 403.396L426.039 390.084L429.352 389.043L428.905 390.546L429.386 390.395C429.741 389.797 430.179 389.303 430.699 388.912C431.236 388.516 431.808 388.223 432.413 388.033L434.016 387.53L433.122 390.536L431.466 391.056C430.611 391.324 429.838 391.778 429.148 392.416C428.463 393.037 427.979 393.822 427.697 394.77L425.446 402.338L422.08 403.396ZM440.521 397.944C439.327 398.319 438.472 398.401 437.953 398.191C437.434 397.981 437.098 397.673 436.944 397.267L436.463 397.418L435.984 399.028L432.672 400.069L438.259 381.282L441.625 380.225L439.542 387.23L440.023 387.079C440.314 386.695 440.663 386.31 441.069 385.923C441.492 385.53 441.998 385.161 442.585 384.814C443.196 384.444 443.902 384.133 444.703 383.881C445.772 383.545 446.68 383.503 447.429 383.755C448.183 383.988 448.684 384.528 448.933 385.375C449.182 386.221 449.091 387.369 448.66 388.818L448.532 389.248C448.101 390.697 447.458 392.018 446.602 393.212C445.747 394.405 444.785 395.412 443.717 396.235C442.655 397.039 441.589 397.609 440.521 397.944ZM440.384 395.311C441.416 394.986 442.379 394.384 443.27 393.504C444.167 392.606 444.807 391.513 445.19 390.224L445.27 389.956C445.653 388.668 445.596 387.802 445.098 387.358C444.623 386.891 443.861 386.822 442.81 387.152C441.777 387.476 440.812 388.088 439.916 388.986C439.024 389.866 438.387 390.95 438.004 392.238L437.924 392.507C437.541 393.795 437.595 394.67 438.088 395.132C438.585 395.576 439.351 395.635 440.384 395.311ZM449.707 394.718L453.666 381.406L457.032 380.349L453.073 393.661L449.707 394.718ZM455.812 379.321C455.206 379.511 454.748 379.477 454.438 379.217C454.145 378.953 454.095 378.498 454.286 377.854C454.478 377.21 454.837 376.627 455.364 376.104C455.908 375.576 456.483 375.217 457.089 375.027C457.712 374.831 458.17 374.866 458.463 375.131C458.755 375.396 458.806 375.85 458.614 376.495C458.422 377.139 458.063 377.722 457.537 378.244C457.01 378.766 456.435 379.125 455.812 379.321ZM461.878 390.895C461.005 391.169 460.373 391.125 459.98 390.761C459.611 390.375 459.562 389.725 459.834 388.812L462.068 381.298L458.756 382.338L459.586 379.547L462.899 378.507L464.128 374.373L467.494 373.316L466.264 377.449L469.897 376.308L469.067 379.099L465.434 380.241L463.375 387.165C463.215 387.702 463.385 387.892 463.884 387.735L466.448 386.929L465.618 389.721L461.878 390.895ZM468.985 388.663L472.944 375.351L476.257 374.311L475.81 375.814L476.291 375.663C476.646 375.064 477.084 374.57 477.603 374.18C478.141 373.784 478.712 373.491 479.318 373.301L480.921 372.797L480.027 375.803L478.371 376.323C477.516 376.592 476.743 377.045 476.053 377.684C475.368 378.305 474.884 379.089 474.602 380.037L472.351 387.606L468.985 388.663ZM484.562 383.965C483.529 384.29 482.69 384.342 482.044 384.123C481.422 383.881 481.023 383.406 480.845 382.699C480.668 381.993 480.742 381.094 481.066 380.002L483.429 372.058L486.795 371.001L484.512 378.677C484.214 379.679 484.231 380.355 484.563 380.705C484.912 381.049 485.541 381.078 486.45 380.793C487.482 380.469 488.385 379.877 489.157 379.018C489.934 378.141 490.507 377.086 490.874 375.851L492.885 369.088L496.251 368.031L492.292 381.342L488.98 382.383L489.499 380.638L489.018 380.789C488.671 381.304 488.14 381.868 487.425 382.482C486.709 383.096 485.755 383.59 484.562 383.965ZM496.038 380.166L499.997 366.854L503.309 365.814L502.878 367.263L503.359 367.112C503.723 366.592 504.221 366.087 504.851 365.597C505.486 365.089 506.24 364.699 507.113 364.424C508.057 364.128 508.758 364.078 509.216 364.275C509.679 364.454 509.975 364.791 510.102 365.286L510.583 365.135C511.056 364.468 511.624 363.859 512.288 363.31C512.952 362.761 513.791 362.327 514.806 362.008C515.625 361.751 516.311 361.697 516.864 361.848C517.439 361.976 517.817 362.336 517.996 362.928C518.198 363.498 518.139 364.319 517.82 365.392L515.218 374.142L511.852 375.199L514.382 366.691C514.6 365.958 514.576 365.471 514.308 365.23C514.046 364.972 513.576 364.949 512.9 365.162C512.134 365.402 511.463 365.84 510.886 366.475C510.333 367.087 509.921 367.849 509.649 368.762L507.311 376.625L503.945 377.682L506.475 369.175C506.693 368.441 506.669 367.954 506.401 367.714C506.139 367.456 505.669 367.433 504.993 367.645C504.227 367.886 503.556 368.324 502.979 368.959C502.426 369.571 502.014 370.333 501.742 371.245L499.404 379.109L496.038 380.166Z" fill="white"/>
<g filter="url(#filter1_dddddd_7294_15642)">
<path d="M498.549 195.314L454.285 294.294C449.639 304.682 440.761 312.58 429.903 315.984L327.389 348.12C324.197 349.121 323.094 353.077 325.308 355.585C326.515 356.952 328.413 357.481 330.152 356.935L436.597 323.567C447.456 320.163 456.333 312.265 460.979 301.877L506.953 199.073C507.69 197.425 507.396 195.5 506.202 194.147C503.986 191.637 499.916 192.257 498.549 195.314Z" fill="#07F2C7"/>
</g>
<g filter="url(#filter2_dddddd_7294_15642)">
<path d="M451.025 303.717L501.507 189.497C502.136 188.075 500.782 186.58 499.305 187.066L375.316 227.819L319.359 347.762C318.7 349.174 320.029 350.697 321.517 350.237L439.909 313.611C444.871 312.076 448.925 308.467 451.025 303.717Z" fill="#191919"/>
<path d="M451.025 303.717L501.507 189.497C502.136 188.075 500.782 186.58 499.305 187.066L375.316 227.819L319.359 347.762C318.7 349.174 320.029 350.697 321.517 350.237L439.909 313.611C444.871 312.076 448.925 308.467 451.025 303.717Z" stroke="#07F2C7" stroke-width="1.34661" stroke-linecap="round"/>
</g>
<path d="M372.918 223.08L425.45 109.611C425.78 108.899 425.101 108.136 424.355 108.381L306.094 147.232C304.916 147.618 303.951 148.475 303.427 149.599L250.076 264.005C249.743 264.718 250.424 265.484 251.172 265.236L369.725 225.929C371.137 225.461 372.293 224.43 372.918 223.08Z" fill="#FEFFFF" stroke="black" stroke-width="0.897739"/>
<g clip-path="url(#clip3_7294_15642)">
<path d="M323.231 184.859L320.572 188.689C319.79 189.814 319.978 190.861 321.036 190.917C323.754 191.062 327.07 190.843 330.61 190.1C334.752 189.229 339.159 187.65 343.257 185.132L343.256 185.13C343.433 185.02 343.61 184.908 343.787 184.796C345.018 183.979 346.61 182.649 347.855 180.997C349.257 179.134 350.259 176.811 349.75 174.27C349.641 173.731 349.46 173.202 349.215 172.689C347.509 173.895 345.331 175.024 342.632 175.818C340.192 176.536 337.978 176.829 336.06 176.868L332.684 182.509C331.886 183.843 330.355 184.999 328.998 185.156C327.367 185.343 325.829 185.325 324.417 185.104C324.017 185.042 323.62 184.961 323.231 184.859Z" fill="black"/>
<path d="M329.083 167.289C329.123 167.679 329.223 168.075 329.4 168.471C330.152 170.146 331.82 171.107 333.558 171.635C334.685 171.978 335.859 172.145 336.872 172.202C337.329 172.228 337.479 172.639 337.185 173.13L331.72 182.262C331.17 183.182 330.104 183.963 329.178 184.048C327.958 184.16 326.555 184.169 325.198 183.957C322.973 183.609 320.912 182.675 319.956 180.685C319.166 179.04 319.01 177.177 319.385 175.289C320.302 173.092 321.667 171.437 323.254 170.183C324.934 168.855 326.943 167.913 329.083 167.289Z" fill="black"/>
<path d="M360.143 163.351C359.55 168.316 357.308 172.507 354.261 176.063C352.642 177.952 350.782 179.679 348.793 181.257L348.804 181.243C350.469 179.032 351.574 176.36 351.012 173.56C350.259 169.8 346.296 166.625 341.7 165.627C338.719 164.98 333.933 164.857 329.352 166.189C327.056 166.856 324.753 167.907 322.747 169.492C322.048 170.044 321.395 170.654 320.797 171.323C322.878 167.087 327.184 161.287 334.95 156.644C341.726 152.592 348.316 151.784 353.087 153.257C357.866 154.732 360.727 158.468 360.143 163.351Z" fill="black"/>
</g>
<path d="M293.831 223.76L300.481 210.562L304.495 209.386L304.268 220.702L301.894 221.398L301.987 218.896L297.624 220.174L296.205 223.065L293.831 223.76ZM298.764 217.879L302.046 216.918L302.237 211.381L301.923 211.474L298.764 217.879ZM307.444 219.772L307.123 211.894L309.462 211.209L309.485 217.695L309.799 217.603L313.79 209.941L316.129 209.256L310.935 218.749L307.444 219.772ZM317.605 217.02C316.989 217.2 316.465 217.257 316.036 217.19C315.609 217.112 315.308 216.911 315.132 216.587C314.97 216.249 314.973 215.782 315.14 215.186C315.307 214.591 315.586 214.054 315.976 213.575C316.382 213.082 316.863 212.662 317.419 212.317C317.989 211.957 318.601 211.681 319.252 211.491L321.626 210.795L321.763 210.305C321.878 209.896 321.843 209.601 321.659 209.419C321.479 209.226 321.109 209.211 320.551 209.374C320.004 209.535 319.561 209.782 319.221 210.118C318.885 210.441 318.62 210.813 318.427 211.234L316.594 211.144C316.858 210.66 317.192 210.192 317.596 209.742C318.015 209.276 318.512 208.858 319.086 208.486C319.675 208.099 320.342 207.796 321.087 207.578C322.227 207.244 323.048 207.266 323.551 207.643C324.054 208.021 324.153 208.753 323.848 209.839L322.94 213.078C322.841 213.428 322.955 213.556 323.281 213.46L323.979 213.256L323.468 215.077L322.002 215.506C321.572 215.632 321.246 215.631 321.026 215.503C320.806 215.375 320.745 215.135 320.843 214.785L320.848 214.768L320.516 214.865C320.43 215.019 320.273 215.236 320.045 215.517C319.82 215.787 319.508 216.06 319.11 216.338C318.712 216.615 318.21 216.842 317.605 217.02ZM318.49 215.121C319.107 214.94 319.655 214.624 320.134 214.173C320.627 213.707 320.955 213.188 321.115 212.616L321.164 212.441L318.948 213.09C318.54 213.21 318.196 213.391 317.914 213.634C317.632 213.878 317.447 214.157 317.359 214.472C317.27 214.787 317.32 215.008 317.509 215.135C317.698 215.262 318.025 215.257 318.49 215.121ZM325.076 214.606L327.512 205.92L329.711 205.276L327.275 213.961L325.076 214.606ZM328.897 204.583C328.501 204.698 328.2 204.669 327.993 204.494C327.797 204.316 327.758 204.016 327.876 203.596C327.994 203.176 328.223 202.798 328.562 202.463C328.914 202.124 329.287 201.897 329.683 201.781C330.09 201.662 330.391 201.691 330.587 201.87C330.782 202.048 330.821 202.347 330.703 202.768C330.585 203.188 330.357 203.565 330.017 203.901C329.677 204.236 329.304 204.463 328.897 204.583ZM329.712 213.247L333.15 200.99L335.349 200.346L331.911 212.603L329.712 213.247ZM338.36 210.713L338.93 208.682L340.536 208.212L342.834 200.017L341.229 200.487L341.799 198.456L346.825 196.983C348.465 196.502 349.592 196.558 350.206 197.15C350.835 197.726 350.918 198.837 350.456 200.483L349.808 202.795C349.346 204.441 348.567 205.81 347.47 206.903C346.388 207.981 345.027 208.76 343.387 209.24L338.36 210.713ZM342.859 207.466L344.011 207.129C344.942 206.856 345.691 206.412 346.259 205.795C346.827 205.179 347.236 204.427 347.484 203.54L348.172 201.088C348.424 200.189 348.402 199.564 348.106 199.211C347.813 198.847 347.201 198.801 346.27 199.074L345.118 199.412L342.859 207.466ZM349.393 207.481L356.043 194.282L360.057 193.106L359.83 204.423L357.456 205.118L357.549 202.616L353.186 203.894L351.767 206.785L349.393 207.481ZM354.326 201.599L357.608 200.638L357.799 195.102L357.485 195.194L354.326 201.599Z" fill="black"/>
<path d="M298.215 142.943L350.747 29.4746C351.077 28.7623 350.398 27.9996 349.652 28.2446L231.391 67.0948C230.213 67.4818 229.248 68.3386 228.724 69.4622L175.372 183.868C175.04 184.581 175.721 185.347 176.469 185.099L295.022 145.793C296.434 145.325 297.59 144.293 298.215 142.943Z" fill="#151515" stroke="black" stroke-width="1.80364"/>
<g filter="url(#filter3_dddddd_7294_15642)">
<path d="M295.494 78.0032L285.994 68.9965L268.494 73.4965L256.994 87.4965L253.426 78.0012L248.769 76.9972L253.426 93.4965L242.489 100.995L242.489 103.995L247.893 111.165L237.799 127.986L219.897 132.305L230.865 143.94L248.766 139.621L259.31 127.355L266.386 135.953L289.492 130.5L275.994 103.995L295.494 78.0032Z" fill="black"/>
</g>
<g filter="url(#filter4_dddddd_7294_15642)">
<path d="M267.912 74.1906L283.877 70.6696L262.832 96.4205L247.793 99.7372L267.912 74.1906Z" stroke="#07F2C7" stroke-width="2.47385"/>
<path d="M256.3 122.536L272.218 119.026L262.065 100.155L247.07 103.462L256.3 122.536Z" stroke="#07F2C7" stroke-width="2.47385"/>
<path fill-rule="evenodd" clip-rule="evenodd" d="M232.867 80.6875L248.785 77.1769L257.939 98.5425L242.494 102.207L232.867 80.6875ZM238.592 127.867L220.57 131.783L242.236 103.277L257.76 99.9128L238.592 127.867Z" fill="#07F2C7"/>
</g>
<path d="M365.323 43.128L352.523 28.6282C352.093 28.1414 351.305 28.2577 351.034 28.8477L298.508 143.252C297.883 144.615 296.717 145.655 295.292 146.123L175.783 185.324C175.17 185.525 174.963 186.287 175.39 186.771L188.571 201.703C189.039 202.233 189.775 202.439 190.45 202.229L308.007 165.717C311.729 164.561 314.767 161.849 316.337 158.283L365.768 45.9955C366.192 45.0345 366.018 43.9152 365.323 43.128Z" fill="#303030" stroke="black" stroke-width="1.80364"/>
<path d="M437.653 120.573L426.652 108.111C426.22 107.621 425.424 107.743 425.159 108.341L375.301 220.644C373.732 224.179 370.718 226.868 367.028 228.027L249.923 264.803C249.303 264.998 249.089 265.766 249.519 266.254L260.903 279.15C261.373 279.681 262.111 279.887 262.787 279.674L379.712 242.955C383.648 241.719 386.862 238.85 388.536 235.079L438.096 123.448C438.523 122.486 438.35 121.363 437.653 120.573Z" fill="#303030" stroke="black" stroke-width="1.80279"/>
<g filter="url(#filter5_dddddd_7294_15642)">
<path d="M435.053 314.733L435.871 317.108C436.11 317.801 435.724 318.553 435.022 318.763C434.345 318.966 433.632 318.586 433.421 317.912L432.549 315.121C432.165 313.894 432.37 312.559 433.104 311.503L435.225 308.45C435.538 307.999 436.178 307.927 436.583 308.297C436.907 308.593 436.974 309.079 436.741 309.451L435.417 311.562C434.823 312.51 434.689 313.675 435.053 314.733Z" fill="#07F2C7"/>
<path d="M429.428 316.904L430.246 319.28C430.485 319.973 430.099 320.725 429.397 320.935C428.72 321.137 428.007 320.758 427.796 320.084L426.924 317.293C426.54 316.066 426.745 314.731 427.479 313.675L429.6 310.622C429.913 310.171 430.553 310.099 430.958 310.469C431.282 310.765 431.349 311.251 431.116 311.623L429.792 313.734C429.198 314.682 429.064 315.847 429.428 316.904Z" fill="#07F2C7"/>
<path d="M423.819 319.053L424.637 321.428C424.876 322.121 424.489 322.874 423.787 323.084C423.111 323.286 422.398 322.907 422.187 322.233L421.314 319.441C420.931 318.214 421.136 316.879 421.869 315.823L423.991 312.77C424.304 312.319 424.943 312.247 425.349 312.618C425.673 312.914 425.739 313.399 425.506 313.771L424.183 315.882C423.589 316.83 423.455 317.995 423.819 319.053Z" fill="#07F2C7"/>
<path d="M417.538 320.604L418.356 322.979C418.594 323.672 418.208 324.424 417.506 324.634C416.83 324.837 416.116 324.457 415.906 323.784L415.033 320.992C414.65 319.765 414.854 318.43 415.588 317.374L417.709 314.321C418.023 313.87 418.662 313.798 419.068 314.168C419.392 314.464 419.458 314.95 419.225 315.322L417.901 317.433C417.307 318.381 417.174 319.546 417.538 320.604Z" fill="#07F2C7"/>
<path d="M411.249 322.17L412.067 324.545C412.305 325.238 411.919 325.991 411.217 326.201C410.541 326.403 409.827 326.024 409.617 325.35L408.744 322.558C408.361 321.331 408.565 319.996 409.299 318.941L411.42 315.887C411.734 315.436 412.373 315.365 412.779 315.735C413.103 316.031 413.169 316.516 412.936 316.888L411.612 319C411.018 319.947 410.885 321.113 411.249 322.17Z" fill="#07F2C7"/>
<path d="M405.632 324.326L406.45 326.702C406.688 327.395 406.302 328.147 405.6 328.357C404.923 328.559 404.21 328.18 403.999 327.506L403.127 324.715C402.743 323.488 402.948 322.152 403.682 321.097L405.803 318.044C406.117 317.593 406.756 317.521 407.161 317.891C407.486 318.187 407.552 318.672 407.319 319.044L405.995 321.156C405.401 322.103 405.267 323.269 405.632 324.326Z" fill="#07F2C7"/>
<path d="M400.608 325.822L401.426 328.198C401.665 328.891 401.279 329.643 400.576 329.853C399.9 330.055 399.187 329.676 398.976 329.002L398.104 326.211C397.72 324.984 397.925 323.649 398.658 322.593L400.78 319.54C401.093 319.089 401.732 319.017 402.138 319.387C402.462 319.683 402.528 320.169 402.295 320.541L400.972 322.652C400.378 323.6 400.244 324.765 400.608 325.822Z" fill="#07F2C7"/>
<path d="M394.991 328.002L395.809 330.377C396.048 331.07 395.661 331.823 394.959 332.033C394.283 332.235 393.569 331.856 393.359 331.182L392.486 328.39C392.103 327.163 392.308 325.828 393.041 324.773L395.163 321.719C395.476 321.268 396.115 321.197 396.521 321.567C396.845 321.863 396.911 322.348 396.678 322.72L395.354 324.832C394.76 325.779 394.627 326.945 394.991 328.002Z" fill="#07F2C7"/>
<path d="M389.975 329.498L390.793 331.874C391.032 332.567 390.646 333.319 389.944 333.529C389.267 333.731 388.554 333.352 388.343 332.678L387.471 329.886C387.087 328.66 387.292 327.324 388.025 326.269L390.147 323.216C390.46 322.764 391.099 322.693 391.505 323.063C391.829 323.359 391.896 323.844 391.662 324.216L390.339 326.328C389.745 327.275 389.611 328.441 389.975 329.498Z" fill="#07F2C7"/>
<path d="M384.952 331.006L385.77 333.381C386.009 334.074 385.622 334.827 384.92 335.037C384.244 335.239 383.53 334.86 383.32 334.186L382.447 331.394C382.064 330.167 382.269 328.832 383.002 327.777L385.123 324.723C385.437 324.272 386.076 324.2 386.482 324.571C386.806 324.867 386.872 325.352 386.639 325.724L385.315 327.836C384.721 328.783 384.588 329.949 384.952 331.006Z" fill="#07F2C7"/>
<path d="M378.671 332.565L379.489 334.94C379.727 335.633 379.341 336.385 378.639 336.595C377.962 336.798 377.249 336.418 377.039 335.745L376.166 332.953C375.783 331.726 375.987 330.391 376.721 329.335L378.842 326.282C379.156 325.831 379.795 325.759 380.2 326.129C380.525 326.425 380.591 326.911 380.358 327.283L379.034 329.394C378.44 330.342 378.306 331.507 378.671 332.565Z" fill="#07F2C7"/>
<path d="M373.069 334.713L373.887 337.088C374.126 337.781 373.739 338.534 373.037 338.744C372.361 338.946 371.648 338.567 371.437 337.893L370.564 335.101C370.181 333.874 370.386 332.539 371.119 331.484L373.241 328.43C373.554 327.979 374.193 327.908 374.599 328.278C374.923 328.574 374.989 329.059 374.756 329.431L373.433 331.543C372.839 332.49 372.705 333.656 373.069 334.713Z" fill="#07F2C7"/>
<path d="M366.764 337.604L367.582 339.979C367.821 340.672 367.435 341.424 366.733 341.634C366.056 341.837 365.343 341.457 365.132 340.784L364.26 337.992C363.876 336.765 364.081 335.43 364.815 334.374L366.936 331.321C367.249 330.87 367.888 330.798 368.294 331.168C368.618 331.464 368.685 331.95 368.451 332.322L367.128 334.433C366.534 335.381 366.4 336.546 366.764 337.604Z" fill="#07F2C7"/>
<path d="M360.475 339.162L361.293 341.538C361.532 342.231 361.146 342.983 360.444 343.193C359.767 343.395 359.054 343.016 358.843 342.342L357.971 339.55C357.587 338.324 357.792 336.988 358.525 335.933L360.647 332.88C360.96 332.429 361.599 332.357 362.005 332.727C362.329 333.023 362.396 333.508 362.162 333.88L360.839 335.992C360.245 336.939 360.111 338.105 360.475 339.162Z" fill="#07F2C7"/>
<path d="M355.03 341.292L356.118 343.557C356.435 344.218 356.138 345.01 355.465 345.299C354.817 345.579 354.064 345.285 353.777 344.64L352.587 341.968C352.064 340.794 352.113 339.444 352.719 338.31L354.473 335.032C354.732 334.548 355.359 334.402 355.805 334.723C356.161 334.98 356.283 335.454 356.094 335.85L355.024 338.101C354.544 339.111 354.546 340.284 355.03 341.292Z" fill="#07F2C7"/>
<path d="M349.913 342.764L350.731 345.139C350.969 345.832 350.583 346.585 349.881 346.795C349.205 346.997 348.491 346.618 348.281 345.944L347.408 343.152C347.025 341.925 347.229 340.59 347.963 339.534L350.084 336.481C350.398 336.03 351.037 335.958 351.443 336.329C351.767 336.625 351.833 337.11 351.6 337.482L350.276 339.593C349.682 340.541 349.549 341.706 349.913 342.764Z" fill="#07F2C7"/>
<path d="M344.241 343.654L345.059 346.03C345.298 346.723 344.911 347.475 344.209 347.685C343.533 347.887 342.819 347.508 342.609 346.834L341.736 344.043C341.353 342.816 341.558 341.481 342.291 340.425L344.413 337.372C344.726 336.921 345.365 336.849 345.771 337.219C346.095 337.515 346.161 338.001 345.928 338.373L344.604 340.484C344.01 341.432 343.877 342.597 344.241 343.654Z" fill="#07F2C7"/>
<path d="M338.6 345.834L339.418 348.209C339.657 348.902 339.271 349.655 338.569 349.865C337.892 350.067 337.179 349.688 336.968 349.014L336.096 346.222C335.712 344.995 335.917 343.66 336.65 342.605L338.772 339.552C339.085 339.1 339.724 339.029 340.13 339.399C340.454 339.695 340.521 340.18 340.287 340.552L338.964 342.664C338.37 343.611 338.236 344.777 338.6 345.834Z" fill="#07F2C7"/>
<path d="M332.999 347.983L333.817 350.358C334.055 351.051 333.669 351.803 332.967 352.013C332.291 352.216 331.577 351.836 331.367 351.162L330.494 348.371C330.111 347.144 330.315 345.809 331.049 344.753L333.17 341.7C333.484 341.249 334.123 341.177 334.529 341.547C334.853 341.843 334.919 342.329 334.686 342.701L333.362 344.812C332.768 345.76 332.635 346.925 332.999 347.983Z" fill="#07F2C7"/>
<path d="M326.694 349.557L327.512 351.932C327.751 352.625 327.364 353.377 326.662 353.587C325.986 353.79 325.273 353.411 325.062 352.737L324.189 349.945C323.806 348.718 324.011 347.383 324.744 346.327L326.866 343.274C327.179 342.823 327.818 342.751 328.224 343.122C328.548 343.418 328.614 343.903 328.381 344.275L327.058 346.386C326.464 347.334 326.33 348.499 326.694 349.557Z" fill="#07F2C7"/>
</g>
<g filter="url(#filter6_dddddd_7294_15642)">
<path d="M454.514 297.383L456.785 298.456C457.448 298.769 458.238 298.467 458.524 297.792C458.799 297.142 458.5 296.391 457.853 296.109L455.173 294.936C453.996 294.421 452.646 294.479 451.517 295.092L448.25 296.868C447.767 297.13 447.626 297.757 447.95 298.201C448.209 298.556 448.684 298.674 449.079 298.483L451.322 297.398C452.329 296.911 453.502 296.906 454.514 297.383Z" fill="#07F2C7"/>
<path d="M457.287 292.032L459.559 293.104C460.222 293.417 461.012 293.116 461.297 292.441C461.572 291.79 461.273 291.04 460.626 290.757L457.947 289.585C456.769 289.069 455.419 289.127 454.29 289.741L451.023 291.516C450.541 291.778 450.399 292.406 450.723 292.849C450.982 293.204 451.457 293.323 451.852 293.132L454.096 292.047C455.103 291.56 456.276 291.554 457.287 292.032Z" fill="#07F2C7"/>
<path d="M460.037 286.684L462.309 287.757C462.972 288.07 463.762 287.768 464.047 287.093C464.322 286.443 464.023 285.692 463.376 285.409L460.697 284.237C459.519 283.722 458.169 283.779 457.04 284.393L453.773 286.168C453.291 286.431 453.149 287.058 453.473 287.502C453.732 287.856 454.207 287.975 454.602 287.784L456.846 286.699C457.853 286.212 459.026 286.207 460.037 286.684Z" fill="#07F2C7"/>
<path d="M462.279 280.614L464.551 281.687C465.214 281.999 466.004 281.698 466.289 281.023C466.564 280.372 466.265 279.622 465.618 279.339L462.939 278.167C461.761 277.651 460.412 277.709 459.282 278.323L456.015 280.098C455.533 280.36 455.392 280.988 455.715 281.431C455.974 281.786 456.449 281.905 456.845 281.714L459.088 280.629C460.095 280.142 461.268 280.136 462.279 280.614Z" fill="#07F2C7"/>
<path d="M464.506 274.524L466.778 275.597C467.44 275.91 468.23 275.608 468.516 274.933C468.791 274.283 468.492 273.532 467.845 273.249L465.165 272.077C463.988 271.562 462.638 271.619 461.509 272.233L458.242 274.008C457.759 274.27 457.618 274.898 457.942 275.342C458.201 275.696 458.676 275.815 459.071 275.624L461.315 274.539C462.321 274.052 463.494 274.047 464.506 274.524Z" fill="#07F2C7"/>
<path d="M467.279 269.176L469.551 270.249C470.214 270.562 471.004 270.26 471.289 269.585C471.564 268.935 471.265 268.184 470.618 267.901L467.939 266.729C466.761 266.214 465.412 266.272 464.282 266.885L461.015 268.661C460.533 268.923 460.392 269.55 460.715 269.994C460.974 270.349 461.449 270.467 461.845 270.276L464.088 269.191C465.095 268.704 466.268 268.699 467.279 269.176Z" fill="#07F2C7"/>
<path d="M469.326 264.364L471.598 265.437C472.261 265.749 473.051 265.448 473.336 264.773C473.611 264.122 473.312 263.372 472.665 263.089L469.986 261.917C468.808 261.401 467.458 261.459 466.329 262.073L463.062 263.848C462.58 264.11 462.439 264.738 462.762 265.181C463.021 265.536 463.496 265.655 463.891 265.464L466.135 264.379C467.142 263.892 468.315 263.886 469.326 264.364Z" fill="#07F2C7"/>
<path d="M472.076 259.001L474.348 260.073C475.011 260.386 475.801 260.084 476.086 259.409C476.361 258.759 476.062 258.009 475.415 257.726L472.736 256.553C471.558 256.038 470.208 256.096 469.079 256.71L465.812 258.485C465.33 258.747 465.189 259.374 465.512 259.818C465.771 260.173 466.246 260.292 466.641 260.101L468.885 259.016C469.892 258.529 471.065 258.523 472.076 259.001Z" fill="#07F2C7"/>
<path d="M474.123 254.176L476.395 255.249C477.058 255.562 477.848 255.26 478.133 254.585C478.408 253.935 478.109 253.184 477.462 252.901L474.783 251.729C473.605 251.214 472.255 251.272 471.126 251.885L467.859 253.661C467.377 253.923 467.235 254.55 467.559 254.994C467.818 255.349 468.293 255.467 468.688 255.276L470.932 254.191C471.939 253.704 473.112 253.699 474.123 254.176Z" fill="#07F2C7"/>
<path d="M476.154 249.376L478.426 250.448C479.089 250.761 479.879 250.459 480.164 249.784C480.439 249.134 480.14 248.384 479.493 248.101L476.814 246.928C475.636 246.413 474.287 246.471 473.157 247.085L469.89 248.86C469.408 249.122 469.267 249.749 469.59 250.193C469.849 250.548 470.324 250.667 470.72 250.476L472.963 249.391C473.97 248.904 475.143 248.898 476.154 249.376Z" fill="#07F2C7"/>
<path d="M478.381 243.29L480.653 244.362C481.315 244.675 482.105 244.374 482.391 243.698C482.666 243.048 482.367 242.298 481.72 242.015L479.04 240.842C477.863 240.327 476.513 240.385 475.384 240.999L472.117 242.774C471.634 243.036 471.493 243.663 471.817 244.107C472.076 244.462 472.551 244.581 472.946 244.39L475.19 243.305C476.196 242.818 477.369 242.812 478.381 243.29Z" fill="#07F2C7"/>
<path d="M481.139 237.942L483.41 239.015C484.073 239.328 484.863 239.026 485.149 238.351C485.424 237.701 485.125 236.95 484.478 236.667L481.798 235.495C480.621 234.98 479.271 235.037 478.142 235.651L474.875 237.426C474.392 237.688 474.251 238.316 474.575 238.76C474.834 239.114 475.309 239.233 475.704 239.042L477.947 237.957C478.954 237.47 480.127 237.465 481.139 237.942Z" fill="#07F2C7"/>
<path d="M484.123 231.325L486.395 232.397C487.058 232.71 487.848 232.409 488.133 231.734C488.408 231.083 488.109 230.333 487.462 230.05L484.783 228.878C483.605 228.362 482.255 228.42 481.126 229.034L477.859 230.809C477.377 231.071 477.235 231.699 477.559 232.142C477.818 232.497 478.293 232.616 478.688 232.425L480.932 231.34C481.939 230.853 483.112 230.847 484.123 231.325Z" fill="#07F2C7"/>
<path d="M486.93 225.888L489.25 226.852C489.927 227.133 490.702 226.794 490.955 226.106C491.199 225.444 490.864 224.708 490.205 224.456L487.473 223.413C486.272 222.954 484.927 223.075 483.828 223.742L480.649 225.67C480.179 225.955 480.068 226.588 480.412 227.016C480.688 227.358 481.168 227.454 481.554 227.245L483.743 226.055C484.726 225.52 485.897 225.459 486.93 225.888Z" fill="#07F2C7"/>
<path d="M489.639 220.641L491.91 221.714C492.573 222.027 493.363 221.725 493.649 221.05C493.924 220.4 493.625 219.649 492.978 219.366L490.298 218.194C489.121 217.679 487.771 217.736 486.642 218.35L483.375 220.125C482.892 220.388 482.751 221.015 483.075 221.459C483.334 221.813 483.809 221.932 484.204 221.741L486.447 220.656C487.454 220.169 488.627 220.164 489.639 220.641Z" fill="#07F2C7"/>
<path d="M491.678 215.821L493.949 216.894C494.612 217.206 495.402 216.905 495.688 216.23C495.963 215.579 495.664 214.829 495.017 214.546L492.337 213.374C491.16 212.859 489.81 212.916 488.681 213.53L485.414 215.305C484.931 215.567 484.79 216.195 485.114 216.639C485.373 216.993 485.848 217.112 486.243 216.921L488.486 215.836C489.493 215.349 490.666 215.343 491.678 215.821Z" fill="#07F2C7"/>
<path d="M493.186 210.266L495.457 211.339C496.12 211.652 496.91 211.35 497.196 210.675C497.47 210.025 497.171 209.274 496.525 208.991L493.845 207.819C492.667 207.304 491.318 207.361 490.188 207.975L486.922 209.75C486.439 210.013 486.298 210.64 486.622 211.084C486.88 211.438 487.356 211.557 487.751 211.366L489.994 210.281C491.001 209.794 492.174 209.789 493.186 210.266Z" fill="#07F2C7"/>
<path d="M495.951 204.919L498.223 205.991C498.886 206.304 499.676 206.002 499.961 205.327C500.236 204.677 499.937 203.927 499.29 203.644L496.611 202.471C495.433 201.956 494.083 202.014 492.954 202.628L489.687 204.403C489.205 204.665 489.064 205.292 489.387 205.736C489.646 206.091 490.121 206.21 490.516 206.018L492.76 204.933C493.767 204.447 494.94 204.441 495.951 204.919Z" fill="#07F2C7"/>
<path d="M498.717 199.567L500.988 200.64C501.651 200.953 502.441 200.651 502.727 199.976C503.002 199.326 502.703 198.575 502.056 198.292L499.376 197.12C498.199 196.605 496.849 196.662 495.72 197.276L492.453 199.051C491.97 199.313 491.829 199.941 492.153 200.385C492.412 200.739 492.887 200.858 493.282 200.667L495.526 199.582C496.532 199.095 497.705 199.09 498.717 199.567Z" fill="#07F2C7"/>
<path d="M500.951 193.493L503.223 194.565C503.886 194.878 504.676 194.577 504.961 193.902C505.236 193.251 504.937 192.501 504.29 192.218L501.611 191.046C500.433 190.53 499.083 190.588 497.954 191.202L494.687 192.977C494.205 193.239 494.064 193.867 494.387 194.31C494.646 194.665 495.121 194.784 495.516 194.593L497.76 193.508C498.767 193.021 499.94 193.015 500.951 193.493Z" fill="#07F2C7"/>
</g>
<g filter="url(#filter7_dddddd_7294_15642)">
<path d="M345.126 72.4263C344.402 72.0062 343.473 72.3049 343.13 73.0684L327.318 108.221C327.021 108.88 327.271 109.658 327.897 110.021C328.621 110.441 329.55 110.143 329.893 109.379L345.705 74.2268C346.002 73.5669 345.752 72.7895 345.126 72.4263Z" fill="#07F2C7"/>
</g>
<g filter="url(#filter8_dddddd_7294_15642)">
<path d="M280.339 164.665C280.075 163.948 279.29 163.57 278.565 163.809L258.662 170.36C257.899 170.612 257.496 171.445 257.774 172.199C258.039 172.916 258.823 173.295 259.549 173.056L279.452 166.503C280.214 166.252 280.617 165.419 280.339 164.665Z" fill="#07F2C7"/>
</g>
<g filter="url(#filter9_dddddd_7294_15642)">
<path d="M231.034 180.689C230.77 179.972 229.986 179.593 229.26 179.832L209.357 186.384C208.594 186.635 208.192 187.469 208.47 188.222C208.734 188.939 209.519 189.318 210.244 189.079L230.147 182.527C230.91 182.276 231.312 181.442 231.034 180.689Z" fill="#07F2C7"/>
</g>
<g filter="url(#filter10_dddddd_7294_15642)">
<path d="M301.948 260.583C301.684 259.866 300.9 259.488 300.174 259.727L280.271 266.278C279.508 266.53 279.106 267.363 279.384 268.117C279.648 268.834 280.433 269.213 281.158 268.974L301.061 262.421C301.824 262.17 302.226 261.337 301.948 260.583Z" fill="#07F2C7"/>
</g>
<g filter="url(#filter11_dddddd_7294_15642)">
<path d="M350.019 244.497C349.754 243.78 348.97 243.402 348.244 243.641L328.341 250.193C327.579 250.444 327.176 251.277 327.454 252.031C327.718 252.748 328.503 253.127 329.229 252.888L349.131 246.335C349.894 246.084 350.297 245.251 350.019 244.497Z" fill="#07F2C7"/>
</g>
<g filter="url(#filter12_dddddd_7294_15642)">
<path d="M413.634 159.497C412.91 159.077 411.981 159.375 411.638 160.139L395.825 195.291C395.528 195.951 395.779 196.728 396.404 197.091C397.129 197.512 398.057 197.213 398.401 196.449L414.213 161.297C414.51 160.637 414.26 159.86 413.634 159.497Z" fill="#07F2C7"/>
</g>
<g filter="url(#filter13_dddddd_7294_15642)">
<path d="M606.423 239.102C604.442 239.419 602.753 240.71 601.927 242.538L575.105 301.841C574.369 303.468 574.457 305.349 575.342 306.9C577.583 310.825 583.317 310.59 585.23 306.496L612.778 247.526C614.805 243.185 611.153 238.344 606.423 239.102Z" fill="#07F2C7"/>
</g>
<g filter="url(#filter14_dddddd_7294_15642)">
<path d="M566.501 329.797C564.962 330.137 563.674 331.183 563.025 332.62L536.094 392.269C535.256 394.124 535.679 396.306 537.148 397.715C539.534 400.002 543.463 399.253 544.841 396.249L572.12 336.758C573.839 333.008 570.53 328.907 566.501 329.797Z" fill="#07F2C7"/>
</g>
<g filter="url(#filter15_dddddd_7294_15642)">
<path d="M529.645 405.27C528.611 404.226 527.083 403.842 525.678 404.273L462.122 423.766C460.771 424.181 459.73 425.265 459.372 426.632C458.561 429.73 461.471 432.511 464.529 431.561L528.01 411.824C530.841 410.944 531.73 407.376 529.645 405.27Z" fill="#07F2C7"/>
</g>
<g filter="url(#filter16_dddddd_7294_15642)">
<path d="M434.893 430.772C433.341 429.78 431.433 429.517 429.67 430.052L368.997 448.459C366.141 449.325 364.209 451.981 364.264 454.965C364.346 459.422 368.693 462.545 372.943 461.202L433.4 442.096C438.5 440.484 439.402 433.651 434.893 430.772Z" fill="#07F2C7"/>
</g>
<path d="M525.788 391.675L525.706 391.863L525.511 391.924L367.058 441.383C365.938 441.732 365.106 442.677 364.901 443.832L361.998 460.154C361.694 461.866 362.838 463.5 364.552 463.799L364.474 464.241L364.552 463.799L366.39 464.12L368.455 461.282C366.671 459.008 367.398 456.564 368.03 455.577L368.118 455.44L368.273 455.391L432.496 435.221L432.575 435.196L432.658 435.201C433.32 435.242 433.847 435.59 434.253 436.062C434.654 436.529 434.956 437.14 435.185 437.776C435.559 438.817 435.761 440.001 435.849 440.937L463.278 431.66C462.351 430.389 462.111 429.118 462.232 428.01C462.367 426.772 462.949 425.765 463.459 425.203L463.54 425.113L463.655 425.077L526.274 405.125L526.52 405.046L526.712 405.22C528.822 407.135 529.083 409.519 528.871 411.012L539.309 407.288L543.581 398.154C542.565 398.275 541.607 397.883 540.816 397.333C539.768 396.603 538.932 395.546 538.477 394.793L538.356 394.593L538.451 394.379L565.462 333.412L565.49 333.349L565.535 333.297C566.681 332 568.274 332.122 569.639 332.662C570.755 333.103 571.821 333.856 572.596 334.531L583.653 308.185C582.477 308.112 581.395 307.513 580.516 306.8C579.447 305.931 578.606 304.837 578.152 304.086L578.031 303.885L578.126 303.67L605.098 243.337L605.179 243.156L605.367 243.094C608.041 242.213 610.005 242.366 611.383 242.98C612.36 243.415 613.018 244.073 613.41 244.712L616.239 240.755L615.186 239.562C614.582 238.878 613.711 238.49 612.798 238.499L594.805 238.682C593.569 238.695 592.455 239.431 591.959 240.564L525.788 391.675Z" fill="url(#paint1_linear_7294_15642)" stroke="black" stroke-width="0.897739"/>
<path d="M421.834 234.352L420.191 251.718L409.765 271.736C409.418 272.401 408.876 272.968 408.405 273.086L403.687 274.266L414.483 253.24L414.664 252.886L414.696 252.572L416.468 234.697L421.182 233.517C421.649 233.4 421.89 233.765 421.834 234.352ZM408.938 237.58L407.295 254.945L396.869 274.963C396.522 275.628 395.979 276.195 395.508 276.313L390.791 277.493L401.587 256.467L401.768 256.113L401.799 255.799L403.571 237.924L408.286 236.745C408.753 236.628 408.994 236.992 408.938 237.58ZM390.57 277.923L390.57 277.923C390.57 277.923 390.57 277.923 390.57 277.923L390.464 277.872L390.57 277.923Z" stroke="white" stroke-width="1.46727"/>
<path d="M414.638 249.263L407.664 251.008L404.766 259.988L411.74 258.243L414.37 253.339L414.638 249.263Z" fill="white"/>
<path d="M419.395 233.103L424.335 231.867C425.009 231.698 425.397 232.215 425.307 233.164L423.653 250.643C423.64 250.777 423.59 250.935 423.511 251.087L423.452 251.199L423.451 251.201L413.018 271.232C412.458 272.308 411.633 273.137 410.954 273.307L406.015 274.543C405.737 274.612 405.683 274.224 405.91 273.782L416.927 252.326L418.737 234.062C418.776 233.667 419.115 233.173 419.395 233.103Z" fill="white"/>
<path d="M406.499 236.33L411.439 235.094C412.113 234.925 412.5 235.442 412.411 236.391L410.757 253.87C410.744 254.005 410.693 254.162 410.614 254.314L410.556 254.427L410.555 254.428L400.122 274.459C399.561 275.535 398.737 276.364 398.058 276.534L393.118 277.77C392.841 277.839 392.787 277.451 393.013 277.01L404.03 255.553L405.841 237.29C405.88 236.894 406.218 236.4 406.499 236.33Z" fill="white"/>
<path d="M417.49 248.548L410.516 250.293L407.618 259.273L414.592 257.528L417.222 252.625L417.49 248.548Z" fill="white"/>
<path d="M356.286 310.381L359.479 299.645L361.494 299.012L360.176 303.445L364.145 302.198L365.463 297.766L367.478 297.133L364.285 307.868L362.27 308.501L363.597 304.038L359.629 305.285L358.301 309.748L356.286 310.381ZM369.051 306.371L370.151 302.675L368.611 296.777L370.855 296.072L371.746 299.963L372.021 299.877L375.648 294.567L377.892 293.862L372.166 302.042L371.066 305.738L369.051 306.371ZM375.829 304.242L379.022 293.507L383.418 292.126C384.09 291.915 384.639 291.868 385.066 291.984C385.506 292.087 385.795 292.339 385.934 292.74C386.083 293.138 386.058 293.675 385.857 294.349L385.793 294.564C385.596 295.229 385.27 295.859 384.815 296.456C384.374 297.04 383.853 297.551 383.252 297.99C382.664 298.416 382.045 298.731 381.393 298.935L379.012 299.683L377.844 303.609L375.829 304.242ZM379.559 297.843L381.742 297.157C382.22 297.007 382.647 296.753 383.021 296.394C383.395 296.036 383.651 295.626 383.787 295.166L383.833 295.013C383.97 294.553 383.93 294.236 383.714 294.063C383.498 293.89 383.151 293.879 382.673 294.029L380.49 294.714L379.559 297.843ZM385.042 301.349L388.235 290.613L395.104 288.456L394.556 290.296L389.702 291.821L388.941 294.382L393.367 292.991L392.82 294.832L388.393 296.222L387.604 298.875L392.55 297.322L392.003 299.162L385.042 301.349ZM393.494 298.694L396.687 287.959L401.327 286.501C401.999 286.29 402.549 286.224 402.978 286.302C403.407 286.381 403.695 286.592 403.842 286.935C403.989 287.278 403.975 287.741 403.802 288.324L403.747 288.508C403.556 289.152 403.248 289.721 402.824 290.216C402.4 290.71 401.937 291.12 401.435 291.445L401.353 291.721C401.754 291.613 402.026 291.657 402.171 291.853C402.319 292.038 402.329 292.346 402.202 292.775L401.157 296.287L399.142 296.92L400.1 293.699C400.173 293.454 400.166 293.275 400.079 293.163C400.003 293.048 399.817 293.037 399.522 293.13L396.713 294.012L395.509 298.061L393.494 298.694ZM397.261 292.172L399.672 291.414C400.151 291.264 400.56 291.02 400.901 290.681C401.255 290.329 401.495 289.938 401.623 289.509L401.669 289.355C401.796 288.926 401.766 288.625 401.577 288.452C401.392 288.27 401.055 288.255 400.566 288.408L398.155 289.166L397.261 292.172ZM403.139 295.664L406.332 284.929L408.347 284.296L405.701 293.191L410.586 291.657L410.039 293.497L403.139 295.664ZM410.68 293.296L416.681 281.678L420.192 280.576L419.808 290.429L417.732 291.081L417.854 288.901L414.038 290.1L412.756 292.644L410.68 293.296ZM415.068 288.08L417.938 287.179L418.195 282.357L417.921 282.443L415.068 288.08ZM421.087 290.027L424.28 279.292L428.111 278.088L427.451 286.777L427.725 286.691L430.508 277.336L432.492 276.712L429.299 287.448L425.468 288.651L426.128 279.962L425.854 280.049L423.071 289.404L421.087 290.027ZM431.313 286.815L434.506 276.08L441.375 273.922L440.828 275.763L435.973 277.287L435.212 279.848L439.639 278.458L439.091 280.298L434.664 281.689L433.875 284.342L438.821 282.788L438.274 284.629L431.313 286.815Z" fill="white"/>
<path d="M616.939 241.14L740.367 379.674" stroke="url(#paint2_linear_7294_15642)" stroke-width="0.421481"/>
<path d="M539.486 407.511L662.913 546.045" stroke="url(#paint3_linear_7294_15642)" stroke-width="0.421481"/>
<path d="M367.204 465.168L490.632 603.701" stroke="url(#paint4_linear_7294_15642)" stroke-width="0.421481"/>
<path d="M381.493 56.3629L504.921 194.896" stroke="url(#paint5_linear_7294_15642)" stroke-width="0.421481"/>
<path d="M202.681 214.156L326.109 352.689" stroke="url(#paint6_linear_7294_15642)" stroke-width="0.421481"/>
<path d="M230.157 -110.336L353.585 28.1971" stroke="url(#paint7_linear_7294_15642)" stroke-width="0.421481"/>
<path d="M51.3528 47.4606L174.781 185.994" stroke="url(#paint8_linear_7294_15642)" stroke-width="0.421481"/>
<path d="M110.935 -69.5409L229.062 67.1266" stroke="url(#paint9_linear_7294_15642)" stroke-width="0.421481"/>
</g>
<path d="M211.4 361L334.828 499.533" stroke="url(#paint10_linear_7294_15642)" stroke-width="0.25" stroke-linecap="round"/>
<path d="M666.4 163L789.828 301.533" stroke="url(#paint11_linear_7294_15642)" stroke-width="0.25" stroke-linecap="round"/>
<path d="M666.4 30.9996L789.828 169.533" stroke="url(#paint12_linear_7294_15642)" stroke-width="0.25" stroke-linecap="round"/>
<path d="M483.4 30.9996L606.828 169.533" stroke="url(#paint13_linear_7294_15642)" stroke-width="0.25" stroke-linecap="round"/>
<path d="M41.3997 223L164.828 361.533" stroke="url(#paint14_linear_7294_15642)" stroke-width="0.25" stroke-linecap="round"/>
<path d="M41.3997 361L164.828 499.533" stroke="url(#paint15_linear_7294_15642)" stroke-width="0.25" stroke-linecap="round"/>
</g>
<path d="M0.5 30C0.5 13.7076 13.7076 0.5 30 0.5H798C814.292 0.5 827.5 13.7076 827.5 30V479C827.5 495.292 814.292 508.5 798 508.5H30C13.7076 508.5 0.5 495.292 0.5 479V30Z" stroke="#EFEFEF"/>
</g>
<defs>
<filter id="filter0_b_7294_15642" x="-110.833" y="-110.833" width="1049.67" height="730.667" filterUnits="userSpaceOnUse" color-interpolation-filters="sRGB">
<feFlood flood-opacity="0" result="BackgroundImageFix"/>
<feGaussianBlur in="BackgroundImageFix" stdDeviation="55.4167"/>
<feComposite in2="SourceAlpha" operator="in" result="effect1_backgroundBlur_7294_15642"/>
<feBlend mode="normal" in="SourceGraphic" in2="effect1_backgroundBlur_7294_15642" result="shape"/>
</filter>
<filter id="filter1_dddddd_7294_15642" x="182.418" y="50.8594" width="466.664" height="448.019" filterUnits="userSpaceOnUse" color-interpolation-filters="sRGB">
<feFlood flood-opacity="0" result="BackgroundImageFix"/>
<feColorMatrix in="SourceAlpha" type="matrix" values="0 0 0 0 0 0 0 0 0 0 0 0 0 0 0 0 0 0 127 0" result="hardAlpha"/>
<feOffset/>
<feGaussianBlur stdDeviation="1.68727"/>
<feColorMatrix type="matrix" values="0 0 0 0 0.266667 0 0 0 0 1 0 0 0 0 0.690196 0 0 0 0.05 0"/>
<feBlend mode="normal" in2="BackgroundImageFix" result="effect1_dropShadow_7294_15642"/>
<feColorMatrix in="SourceAlpha" type="matrix" values="0 0 0 0 0 0 0 0 0 0 0 0 0 0 0 0 0 0 127 0" result="hardAlpha"/>
<feOffset/>
<feGaussianBlur stdDeviation="3.37453"/>
<feColorMatrix type="matrix" values="0 0 0 0 0.266667 0 0 0 0 1 0 0 0 0 0.690196 0 0 0 0.05 0"/>
<feBlend mode="normal" in2="effect1_dropShadow_7294_15642" result="effect2_dropShadow_7294_15642"/>
<feColorMatrix in="SourceAlpha" type="matrix" values="0 0 0 0 0 0 0 0 0 0 0 0 0 0 0 0 0 0 127 0" result="hardAlpha"/>
<feOffset/>
<feGaussianBlur stdDeviation="11.8109"/>
<feColorMatrix type="matrix" values="0 0 0 0 0.266667 0 0 0 0 1 0 0 0 0 0.690196 0 0 0 0.05 0"/>
<feBlend mode="normal" in2="effect2_dropShadow_7294_15642" result="effect3_dropShadow_7294_15642"/>
<feColorMatrix in="SourceAlpha" type="matrix" values="0 0 0 0 0 0 0 0 0 0 0 0 0 0 0 0 0 0 127 0" result="hardAlpha"/>
<feOffset/>
<feGaussianBlur stdDeviation="23.6217"/>
<feColorMatrix type="matrix" values="0 0 0 0 0.266667 0 0 0 0 1 0 0 0 0 0.690196 0 0 0 0.05 0"/>
<feBlend mode="normal" in2="effect3_dropShadow_7294_15642" result="effect4_dropShadow_7294_15642"/>
<feColorMatrix in="SourceAlpha" type="matrix" values="0 0 0 0 0 0 0 0 0 0 0 0 0 0 0 0 0 0 127 0" result="hardAlpha"/>
<feOffset/>
<feGaussianBlur stdDeviation="40.4944"/>
<feColorMatrix type="matrix" values="0 0 0 0 0.266667 0 0 0 0 1 0 0 0 0 0.690196 0 0 0 0.05 0"/>
<feBlend mode="normal" in2="effect4_dropShadow_7294_15642" result="effect5_dropShadow_7294_15642"/>
<feColorMatrix in="SourceAlpha" type="matrix" values="0 0 0 0 0 0 0 0 0 0 0 0 0 0 0 0 0 0 127 0" result="hardAlpha"/>
<feOffset/>
<feGaussianBlur stdDeviation="70.8652"/>
<feColorMatrix type="matrix" values="0 0 0 0 0.266667 0 0 0 0 1 0 0 0 0 0.690196 0 0 0 0.05 0"/>
<feBlend mode="normal" in2="effect5_dropShadow_7294_15642" result="effect6_dropShadow_7294_15642"/>
<feBlend mode="normal" in="SourceGraphic" in2="effect6_dropShadow_7294_15642" result="shape"/>
</filter>
<filter id="filter2_dddddd_7294_15642" x="206.365" y="74.154" width="408.122" height="388.985" filterUnits="userSpaceOnUse" color-interpolation-filters="sRGB">
<feFlood flood-opacity="0" result="BackgroundImageFix"/>
<feColorMatrix in="SourceAlpha" type="matrix" values="0 0 0 0 0 0 0 0 0 0 0 0 0 0 0 0 0 0 127 0" result="hardAlpha"/>
<feOffset/>
<feGaussianBlur stdDeviation="1.33503"/>
<feColorMatrix type="matrix" values="0 0 0 0 0.266667 0 0 0 0 1 0 0 0 0 0.690196 0 0 0 0.05 0"/>
<feBlend mode="normal" in2="BackgroundImageFix" result="effect1_dropShadow_7294_15642"/>
<feColorMatrix in="SourceAlpha" type="matrix" values="0 0 0 0 0 0 0 0 0 0 0 0 0 0 0 0 0 0 127 0" result="hardAlpha"/>
<feOffset/>
<feGaussianBlur stdDeviation="2.67007"/>
<feColorMatrix type="matrix" values="0 0 0 0 0.266667 0 0 0 0 1 0 0 0 0 0.690196 0 0 0 0.05 0"/>
<feBlend mode="normal" in2="effect1_dropShadow_7294_15642" result="effect2_dropShadow_7294_15642"/>
<feColorMatrix in="SourceAlpha" type="matrix" values="0 0 0 0 0 0 0 0 0 0 0 0 0 0 0 0 0 0 127 0" result="hardAlpha"/>
<feOffset/>
<feGaussianBlur stdDeviation="9.34524"/>
<feColorMatrix type="matrix" values="0 0 0 0 0.266667 0 0 0 0 1 0 0 0 0 0.690196 0 0 0 0.05 0"/>
<feBlend mode="normal" in2="effect2_dropShadow_7294_15642" result="effect3_dropShadow_7294_15642"/>
<feColorMatrix in="SourceAlpha" type="matrix" values="0 0 0 0 0 0 0 0 0 0 0 0 0 0 0 0 0 0 127 0" result="hardAlpha"/>
<feOffset/>
<feGaussianBlur stdDeviation="18.6905"/>
<feColorMatrix type="matrix" values="0 0 0 0 0.266667 0 0 0 0 1 0 0 0 0 0.690196 0 0 0 0.05 0"/>
<feBlend mode="normal" in2="effect3_dropShadow_7294_15642" result="effect4_dropShadow_7294_15642"/>
<feColorMatrix in="SourceAlpha" type="matrix" values="0 0 0 0 0 0 0 0 0 0 0 0 0 0 0 0 0 0 127 0" result="hardAlpha"/>
<feOffset/>
<feGaussianBlur stdDeviation="32.0408"/>
<feColorMatrix type="matrix" values="0 0 0 0 0.266667 0 0 0 0 1 0 0 0 0 0.690196 0 0 0 0.05 0"/>
<feBlend mode="normal" in2="effect4_dropShadow_7294_15642" result="effect5_dropShadow_7294_15642"/>
<feColorMatrix in="SourceAlpha" type="matrix" values="0 0 0 0 0 0 0 0 0 0 0 0 0 0 0 0 0 0 127 0" result="hardAlpha"/>
<feOffset/>
<feGaussianBlur stdDeviation="56.0715"/>
<feColorMatrix type="matrix" values="0 0 0 0 0.266667 0 0 0 0 1 0 0 0 0 0.690196 0 0 0 0.05 0"/>
<feBlend mode="normal" in2="effect5_dropShadow_7294_15642" result="effect6_dropShadow_7294_15642"/>
<feBlend mode="normal" in="SourceGraphic" in2="effect6_dropShadow_7294_15642" result="shape"/>
</filter>
<filter id="filter3_dddddd_7294_15642" x="155.848" y="4.94592" width="203.694" height="203.046" filterUnits="userSpaceOnUse" color-interpolation-filters="sRGB">
<feFlood flood-opacity="0" result="BackgroundImageFix"/>
<feColorMatrix in="SourceAlpha" type="matrix" values="0 0 0 0 0 0 0 0 0 0 0 0 0 0 0 0 0 0 127 0" result="hardAlpha"/>
<feOffset/>
<feGaussianBlur stdDeviation="0.762502"/>
<feColorMatrix type="matrix" values="0 0 0 0 1 0 0 0 0 1 0 0 0 0 1 0 0 0 0.15 0"/>
<feBlend mode="normal" in2="BackgroundImageFix" result="effect1_dropShadow_7294_15642"/>
<feColorMatrix in="SourceAlpha" type="matrix" values="0 0 0 0 0 0 0 0 0 0 0 0 0 0 0 0 0 0 127 0" result="hardAlpha"/>
<feOffset/>
<feGaussianBlur stdDeviation="1.525"/>
<feColorMatrix type="matrix" values="0 0 0 0 1 0 0 0 0 1 0 0 0 0 1 0 0 0 0.15 0"/>
<feBlend mode="normal" in2="effect1_dropShadow_7294_15642" result="effect2_dropShadow_7294_15642"/>
<feColorMatrix in="SourceAlpha" type="matrix" values="0 0 0 0 0 0 0 0 0 0 0 0 0 0 0 0 0 0 127 0" result="hardAlpha"/>
<feOffset/>
<feGaussianBlur stdDeviation="5.33751"/>
<feColorMatrix type="matrix" values="0 0 0 0 1 0 0 0 0 1 0 0 0 0 1 0 0 0 0.15 0"/>
<feBlend mode="normal" in2="effect2_dropShadow_7294_15642" result="effect3_dropShadow_7294_15642"/>
<feColorMatrix in="SourceAlpha" type="matrix" values="0 0 0 0 0 0 0 0 0 0 0 0 0 0 0 0 0 0 127 0" result="hardAlpha"/>
<feOffset/>
<feGaussianBlur stdDeviation="10.675"/>
<feColorMatrix type="matrix" values="0 0 0 0 1 0 0 0 0 1 0 0 0 0 1 0 0 0 0.15 0"/>
<feBlend mode="normal" in2="effect3_dropShadow_7294_15642" result="effect4_dropShadow_7294_15642"/>
<feColorMatrix in="SourceAlpha" type="matrix" values="0 0 0 0 0 0 0 0 0 0 0 0 0 0 0 0 0 0 127 0" result="hardAlpha"/>
<feOffset/>
<feGaussianBlur stdDeviation="18.3001"/>
<feColorMatrix type="matrix" values="0 0 0 0 1 0 0 0 0 1 0 0 0 0 1 0 0 0 0.15 0"/>
<feBlend mode="normal" in2="effect4_dropShadow_7294_15642" result="effect5_dropShadow_7294_15642"/>
<feColorMatrix in="SourceAlpha" type="matrix" values="0 0 0 0 0 0 0 0 0 0 0 0 0 0 0 0 0 0 127 0" result="hardAlpha"/>
<feOffset/>
<feGaussianBlur stdDeviation="32.0251"/>
<feColorMatrix type="matrix" values="0 0 0 0 1 0 0 0 0 1 0 0 0 0 1 0 0 0 0.15 0"/>
<feBlend mode="normal" in2="effect5_dropShadow_7294_15642" result="effect6_dropShadow_7294_15642"/>
<feBlend mode="normal" in="SourceGraphic" in2="effect6_dropShadow_7294_15642" result="shape"/>
</filter>
<filter id="filter4_dddddd_7294_15642" x="156.52" y="4.90687" width="194.014" height="190.925" filterUnits="userSpaceOnUse" color-interpolation-filters="sRGB">
<feFlood flood-opacity="0" result="BackgroundImageFix"/>
<feColorMatrix in="SourceAlpha" type="matrix" values="0 0 0 0 0 0 0 0 0 0 0 0 0 0 0 0 0 0 127 0" result="hardAlpha"/>
<feOffset/>
<feGaussianBlur stdDeviation="0.762502"/>
<feColorMatrix type="matrix" values="0 0 0 0 1 0 0 0 0 1 0 0 0 0 1 0 0 0 0.15 0"/>
<feBlend mode="normal" in2="BackgroundImageFix" result="effect1_dropShadow_7294_15642"/>
<feColorMatrix in="SourceAlpha" type="matrix" values="0 0 0 0 0 0 0 0 0 0 0 0 0 0 0 0 0 0 127 0" result="hardAlpha"/>
<feOffset/>
<feGaussianBlur stdDeviation="1.525"/>
<feColorMatrix type="matrix" values="0 0 0 0 1 0 0 0 0 1 0 0 0 0 1 0 0 0 0.15 0"/>
<feBlend mode="normal" in2="effect1_dropShadow_7294_15642" result="effect2_dropShadow_7294_15642"/>
<feColorMatrix in="SourceAlpha" type="matrix" values="0 0 0 0 0 0 0 0 0 0 0 0 0 0 0 0 0 0 127 0" result="hardAlpha"/>
<feOffset/>
<feGaussianBlur stdDeviation="5.33751"/>
<feColorMatrix type="matrix" values="0 0 0 0 1 0 0 0 0 1 0 0 0 0 1 0 0 0 0.15 0"/>
<feBlend mode="normal" in2="effect2_dropShadow_7294_15642" result="effect3_dropShadow_7294_15642"/>
<feColorMatrix in="SourceAlpha" type="matrix" values="0 0 0 0 0 0 0 0 0 0 0 0 0 0 0 0 0 0 127 0" result="hardAlpha"/>
<feOffset/>
<feGaussianBlur stdDeviation="10.675"/>
<feColorMatrix type="matrix" values="0 0 0 0 1 0 0 0 0 1 0 0 0 0 1 0 0 0 0.15 0"/>
<feBlend mode="normal" in2="effect3_dropShadow_7294_15642" result="effect4_dropShadow_7294_15642"/>
<feColorMatrix in="SourceAlpha" type="matrix" values="0 0 0 0 0 0 0 0 0 0 0 0 0 0 0 0 0 0 127 0" result="hardAlpha"/>
<feOffset/>
<feGaussianBlur stdDeviation="18.3001"/>
<feColorMatrix type="matrix" values="0 0 0 0 1 0 0 0 0 1 0 0 0 0 1 0 0 0 0.15 0"/>
<feBlend mode="normal" in2="effect4_dropShadow_7294_15642" result="effect5_dropShadow_7294_15642"/>
<feColorMatrix in="SourceAlpha" type="matrix" values="0 0 0 0 0 0 0 0 0 0 0 0 0 0 0 0 0 0 127 0" result="hardAlpha"/>
<feOffset/>
<feGaussianBlur stdDeviation="32.0251"/>
<feColorMatrix type="matrix" values="0 0 0 0 1 0 0 0 0 1 0 0 0 0 1 0 0 0 0.15 0"/>
<feBlend mode="normal" in2="effect5_dropShadow_7294_15642" result="effect6_dropShadow_7294_15642"/>
<feBlend mode="normal" in="SourceGraphic" in2="effect6_dropShadow_7294_15642" result="shape"/>
</filter>
<filter id="filter5_dddddd_7294_15642" x="182.27" y="166.328" width="396.344" height="329.043" filterUnits="userSpaceOnUse" color-interpolation-filters="sRGB">
<feFlood flood-opacity="0" result="BackgroundImageFix"/>
<feColorMatrix in="SourceAlpha" type="matrix" values="0 0 0 0 0 0 0 0 0 0 0 0 0 0 0 0 0 0 127 0" result="hardAlpha"/>
<feOffset/>
<feGaussianBlur stdDeviation="1.68727"/>
<feColorMatrix type="matrix" values="0 0 0 0 1 0 0 0 0 1 0 0 0 0 1 0 0 0 0.25 0"/>
<feBlend mode="normal" in2="BackgroundImageFix" result="effect1_dropShadow_7294_15642"/>
<feColorMatrix in="SourceAlpha" type="matrix" values="0 0 0 0 0 0 0 0 0 0 0 0 0 0 0 0 0 0 127 0" result="hardAlpha"/>
<feOffset/>
<feGaussianBlur stdDeviation="3.37454"/>
<feColorMatrix type="matrix" values="0 0 0 0 1 0 0 0 0 1 0 0 0 0 1 0 0 0 0.25 0"/>
<feBlend mode="normal" in2="effect1_dropShadow_7294_15642" result="effect2_dropShadow_7294_15642"/>
<feColorMatrix in="SourceAlpha" type="matrix" values="0 0 0 0 0 0 0 0 0 0 0 0 0 0 0 0 0 0 127 0" result="hardAlpha"/>
<feOffset/>
<feGaussianBlur stdDeviation="11.8109"/>
<feColorMatrix type="matrix" values="0 0 0 0 1 0 0 0 0 1 0 0 0 0 1 0 0 0 0.25 0"/>
<feBlend mode="normal" in2="effect2_dropShadow_7294_15642" result="effect3_dropShadow_7294_15642"/>
<feColorMatrix in="SourceAlpha" type="matrix" values="0 0 0 0 0 0 0 0 0 0 0 0 0 0 0 0 0 0 127 0" result="hardAlpha"/>
<feOffset/>
<feGaussianBlur stdDeviation="23.6217"/>
<feColorMatrix type="matrix" values="0 0 0 0 1 0 0 0 0 1 0 0 0 0 1 0 0 0 0.25 0"/>
<feBlend mode="normal" in2="effect3_dropShadow_7294_15642" result="effect4_dropShadow_7294_15642"/>
<feColorMatrix in="SourceAlpha" type="matrix" values="0 0 0 0 0 0 0 0 0 0 0 0 0 0 0 0 0 0 127 0" result="hardAlpha"/>
<feOffset/>
<feGaussianBlur stdDeviation="40.4944"/>
<feColorMatrix type="matrix" values="0 0 0 0 1 0 0 0 0 1 0 0 0 0 1 0 0 0 0.25 0"/>
<feBlend mode="normal" in2="effect4_dropShadow_7294_15642" result="effect5_dropShadow_7294_15642"/>
<feColorMatrix in="SourceAlpha" type="matrix" values="0 0 0 0 0 0 0 0 0 0 0 0 0 0 0 0 0 0 127 0" result="hardAlpha"/>
<feOffset/>
<feGaussianBlur stdDeviation="70.8652"/>
<feColorMatrix type="matrix" values="0 0 0 0 1 0 0 0 0 1 0 0 0 0 1 0 0 0 0.25 0"/>
<feBlend mode="normal" in2="effect5_dropShadow_7294_15642" result="effect6_dropShadow_7294_15642"/>
<feBlend mode="normal" in="SourceGraphic" in2="effect6_dropShadow_7294_15642" result="shape"/>
</filter>
<filter id="filter6_dddddd_7294_15642" x="306.043" y="48.9649" width="340.75" height="391.344" filterUnits="userSpaceOnUse" color-interpolation-filters="sRGB">
<feFlood flood-opacity="0" result="BackgroundImageFix"/>
<feColorMatrix in="SourceAlpha" type="matrix" values="0 0 0 0 0 0 0 0 0 0 0 0 0 0 0 0 0 0 127 0" result="hardAlpha"/>
<feOffset/>
<feGaussianBlur stdDeviation="1.68727"/>
<feColorMatrix type="matrix" values="0 0 0 0 1 0 0 0 0 1 0 0 0 0 1 0 0 0 0.25 0"/>
<feBlend mode="normal" in2="BackgroundImageFix" result="effect1_dropShadow_7294_15642"/>
<feColorMatrix in="SourceAlpha" type="matrix" values="0 0 0 0 0 0 0 0 0 0 0 0 0 0 0 0 0 0 127 0" result="hardAlpha"/>
<feOffset/>
<feGaussianBlur stdDeviation="3.37453"/>
<feColorMatrix type="matrix" values="0 0 0 0 1 0 0 0 0 1 0 0 0 0 1 0 0 0 0.25 0"/>
<feBlend mode="normal" in2="effect1_dropShadow_7294_15642" result="effect2_dropShadow_7294_15642"/>
<feColorMatrix in="SourceAlpha" type="matrix" values="0 0 0 0 0 0 0 0 0 0 0 0 0 0 0 0 0 0 127 0" result="hardAlpha"/>
<feOffset/>
<feGaussianBlur stdDeviation="11.8109"/>
<feColorMatrix type="matrix" values="0 0 0 0 1 0 0 0 0 1 0 0 0 0 1 0 0 0 0.25 0"/>
<feBlend mode="normal" in2="effect2_dropShadow_7294_15642" result="effect3_dropShadow_7294_15642"/>
<feColorMatrix in="SourceAlpha" type="matrix" values="0 0 0 0 0 0 0 0 0 0 0 0 0 0 0 0 0 0 127 0" result="hardAlpha"/>
<feOffset/>
<feGaussianBlur stdDeviation="23.6217"/>
<feColorMatrix type="matrix" values="0 0 0 0 1 0 0 0 0 1 0 0 0 0 1 0 0 0 0.25 0"/>
<feBlend mode="normal" in2="effect3_dropShadow_7294_15642" result="effect4_dropShadow_7294_15642"/>
<feColorMatrix in="SourceAlpha" type="matrix" values="0 0 0 0 0 0 0 0 0 0 0 0 0 0 0 0 0 0 127 0" result="hardAlpha"/>
<feOffset/>
<feGaussianBlur stdDeviation="40.4944"/>
<feColorMatrix type="matrix" values="0 0 0 0 1 0 0 0 0 1 0 0 0 0 1 0 0 0 0.25 0"/>
<feBlend mode="normal" in2="effect4_dropShadow_7294_15642" result="effect5_dropShadow_7294_15642"/>
<feColorMatrix in="SourceAlpha" type="matrix" values="0 0 0 0 0 0 0 0 0 0 0 0 0 0 0 0 0 0 127 0" result="hardAlpha"/>
<feOffset/>
<feGaussianBlur stdDeviation="70.8652"/>
<feColorMatrix type="matrix" values="0 0 0 0 1 0 0 0 0 1 0 0 0 0 1 0 0 0 0.25 0"/>
<feBlend mode="normal" in2="effect5_dropShadow_7294_15642" result="effect6_dropShadow_7294_15642"/>
<feBlend mode="normal" in="SourceGraphic" in2="effect6_dropShadow_7294_15642" result="shape"/>
</filter>
<filter id="filter7_dddddd_7294_15642" x="185.465" y="-69.4961" width="302.094" height="321.437" filterUnits="userSpaceOnUse" color-interpolation-filters="sRGB">
<feFlood flood-opacity="0" result="BackgroundImageFix"/>
<feColorMatrix in="SourceAlpha" type="matrix" values="0 0 0 0 0 0 0 0 0 0 0 0 0 0 0 0 0 0 127 0" result="hardAlpha"/>
<feOffset/>
<feGaussianBlur stdDeviation="1.68727"/>
<feColorMatrix type="matrix" values="0 0 0 0 1 0 0 0 0 1 0 0 0 0 1 0 0 0 0.25 0"/>
<feBlend mode="normal" in2="BackgroundImageFix" result="effect1_dropShadow_7294_15642"/>
<feColorMatrix in="SourceAlpha" type="matrix" values="0 0 0 0 0 0 0 0 0 0 0 0 0 0 0 0 0 0 127 0" result="hardAlpha"/>
<feOffset/>
<feGaussianBlur stdDeviation="3.37453"/>
<feColorMatrix type="matrix" values="0 0 0 0 1 0 0 0 0 1 0 0 0 0 1 0 0 0 0.25 0"/>
<feBlend mode="normal" in2="effect1_dropShadow_7294_15642" result="effect2_dropShadow_7294_15642"/>
<feColorMatrix in="SourceAlpha" type="matrix" values="0 0 0 0 0 0 0 0 0 0 0 0 0 0 0 0 0 0 127 0" result="hardAlpha"/>
<feOffset/>
<feGaussianBlur stdDeviation="11.8109"/>
<feColorMatrix type="matrix" values="0 0 0 0 1 0 0 0 0 1 0 0 0 0 1 0 0 0 0.25 0"/>
<feBlend mode="normal" in2="effect2_dropShadow_7294_15642" result="effect3_dropShadow_7294_15642"/>
<feColorMatrix in="SourceAlpha" type="matrix" values="0 0 0 0 0 0 0 0 0 0 0 0 0 0 0 0 0 0 127 0" result="hardAlpha"/>
<feOffset/>
<feGaussianBlur stdDeviation="23.6217"/>
<feColorMatrix type="matrix" values="0 0 0 0 1 0 0 0 0 1 0 0 0 0 1 0 0 0 0.25 0"/>
<feBlend mode="normal" in2="effect3_dropShadow_7294_15642" result="effect4_dropShadow_7294_15642"/>
<feColorMatrix in="SourceAlpha" type="matrix" values="0 0 0 0 0 0 0 0 0 0 0 0 0 0 0 0 0 0 127 0" result="hardAlpha"/>
<feOffset/>
<feGaussianBlur stdDeviation="40.4944"/>
<feColorMatrix type="matrix" values="0 0 0 0 1 0 0 0 0 1 0 0 0 0 1 0 0 0 0.25 0"/>
<feBlend mode="normal" in2="effect4_dropShadow_7294_15642" result="effect5_dropShadow_7294_15642"/>
<feColorMatrix in="SourceAlpha" type="matrix" values="0 0 0 0 0 0 0 0 0 0 0 0 0 0 0 0 0 0 127 0" result="hardAlpha"/>
<feOffset/>
<feGaussianBlur stdDeviation="70.8652"/>
<feColorMatrix type="matrix" values="0 0 0 0 1 0 0 0 0 1 0 0 0 0 1 0 0 0 0.25 0"/>
<feBlend mode="normal" in2="effect5_dropShadow_7294_15642" result="effect6_dropShadow_7294_15642"/>
<feBlend mode="normal" in="SourceGraphic" in2="effect6_dropShadow_7294_15642" result="shape"/>
</filter>
<filter id="filter8_dddddd_7294_15642" x="115.957" y="22.0078" width="306.203" height="292.852" filterUnits="userSpaceOnUse" color-interpolation-filters="sRGB">
<feFlood flood-opacity="0" result="BackgroundImageFix"/>
<feColorMatrix in="SourceAlpha" type="matrix" values="0 0 0 0 0 0 0 0 0 0 0 0 0 0 0 0 0 0 127 0" result="hardAlpha"/>
<feOffset/>
<feGaussianBlur stdDeviation="1.68727"/>
<feColorMatrix type="matrix" values="0 0 0 0 1 0 0 0 0 1 0 0 0 0 1 0 0 0 0.25 0"/>
<feBlend mode="normal" in2="BackgroundImageFix" result="effect1_dropShadow_7294_15642"/>
<feColorMatrix in="SourceAlpha" type="matrix" values="0 0 0 0 0 0 0 0 0 0 0 0 0 0 0 0 0 0 127 0" result="hardAlpha"/>
<feOffset/>
<feGaussianBlur stdDeviation="3.37454"/>
<feColorMatrix type="matrix" values="0 0 0 0 1 0 0 0 0 1 0 0 0 0 1 0 0 0 0.25 0"/>
<feBlend mode="normal" in2="effect1_dropShadow_7294_15642" result="effect2_dropShadow_7294_15642"/>
<feColorMatrix in="SourceAlpha" type="matrix" values="0 0 0 0 0 0 0 0 0 0 0 0 0 0 0 0 0 0 127 0" result="hardAlpha"/>
<feOffset/>
<feGaussianBlur stdDeviation="11.8109"/>
<feColorMatrix type="matrix" values="0 0 0 0 1 0 0 0 0 1 0 0 0 0 1 0 0 0 0.25 0"/>
<feBlend mode="normal" in2="effect2_dropShadow_7294_15642" result="effect3_dropShadow_7294_15642"/>
<feColorMatrix in="SourceAlpha" type="matrix" values="0 0 0 0 0 0 0 0 0 0 0 0 0 0 0 0 0 0 127 0" result="hardAlpha"/>
<feOffset/>
<feGaussianBlur stdDeviation="23.6217"/>
<feColorMatrix type="matrix" values="0 0 0 0 1 0 0 0 0 1 0 0 0 0 1 0 0 0 0.25 0"/>
<feBlend mode="normal" in2="effect3_dropShadow_7294_15642" result="effect4_dropShadow_7294_15642"/>
<feColorMatrix in="SourceAlpha" type="matrix" values="0 0 0 0 0 0 0 0 0 0 0 0 0 0 0 0 0 0 127 0" result="hardAlpha"/>
<feOffset/>
<feGaussianBlur stdDeviation="40.4944"/>
<feColorMatrix type="matrix" values="0 0 0 0 1 0 0 0 0 1 0 0 0 0 1 0 0 0 0.25 0"/>
<feBlend mode="normal" in2="effect4_dropShadow_7294_15642" result="effect5_dropShadow_7294_15642"/>
<feColorMatrix in="SourceAlpha" type="matrix" values="0 0 0 0 0 0 0 0 0 0 0 0 0 0 0 0 0 0 127 0" result="hardAlpha"/>
<feOffset/>
<feGaussianBlur stdDeviation="70.8652"/>
<feColorMatrix type="matrix" values="0 0 0 0 1 0 0 0 0 1 0 0 0 0 1 0 0 0 0.25 0"/>
<feBlend mode="normal" in2="effect5_dropShadow_7294_15642" result="effect6_dropShadow_7294_15642"/>
<feBlend mode="normal" in="SourceGraphic" in2="effect6_dropShadow_7294_15642" result="shape"/>
</filter>
<filter id="filter9_dddddd_7294_15642" x="66.6524" y="38.0313" width="306.203" height="292.852" filterUnits="userSpaceOnUse" color-interpolation-filters="sRGB">
<feFlood flood-opacity="0" result="BackgroundImageFix"/>
<feColorMatrix in="SourceAlpha" type="matrix" values="0 0 0 0 0 0 0 0 0 0 0 0 0 0 0 0 0 0 127 0" result="hardAlpha"/>
<feOffset/>
<feGaussianBlur stdDeviation="1.68727"/>
<feColorMatrix type="matrix" values="0 0 0 0 1 0 0 0 0 1 0 0 0 0 1 0 0 0 0.25 0"/>
<feBlend mode="normal" in2="BackgroundImageFix" result="effect1_dropShadow_7294_15642"/>
<feColorMatrix in="SourceAlpha" type="matrix" values="0 0 0 0 0 0 0 0 0 0 0 0 0 0 0 0 0 0 127 0" result="hardAlpha"/>
<feOffset/>
<feGaussianBlur stdDeviation="3.37454"/>
<feColorMatrix type="matrix" values="0 0 0 0 1 0 0 0 0 1 0 0 0 0 1 0 0 0 0.25 0"/>
<feBlend mode="normal" in2="effect1_dropShadow_7294_15642" result="effect2_dropShadow_7294_15642"/>
<feColorMatrix in="SourceAlpha" type="matrix" values="0 0 0 0 0 0 0 0 0 0 0 0 0 0 0 0 0 0 127 0" result="hardAlpha"/>
<feOffset/>
<feGaussianBlur stdDeviation="11.8109"/>
<feColorMatrix type="matrix" values="0 0 0 0 1 0 0 0 0 1 0 0 0 0 1 0 0 0 0.25 0"/>
<feBlend mode="normal" in2="effect2_dropShadow_7294_15642" result="effect3_dropShadow_7294_15642"/>
<feColorMatrix in="SourceAlpha" type="matrix" values="0 0 0 0 0 0 0 0 0 0 0 0 0 0 0 0 0 0 127 0" result="hardAlpha"/>
<feOffset/>
<feGaussianBlur stdDeviation="23.6217"/>
<feColorMatrix type="matrix" values="0 0 0 0 1 0 0 0 0 1 0 0 0 0 1 0 0 0 0.25 0"/>
<feBlend mode="normal" in2="effect3_dropShadow_7294_15642" result="effect4_dropShadow_7294_15642"/>
<feColorMatrix in="SourceAlpha" type="matrix" values="0 0 0 0 0 0 0 0 0 0 0 0 0 0 0 0 0 0 127 0" result="hardAlpha"/>
<feOffset/>
<feGaussianBlur stdDeviation="40.4944"/>
<feColorMatrix type="matrix" values="0 0 0 0 1 0 0 0 0 1 0 0 0 0 1 0 0 0 0.25 0"/>
<feBlend mode="normal" in2="effect4_dropShadow_7294_15642" result="effect5_dropShadow_7294_15642"/>
<feColorMatrix in="SourceAlpha" type="matrix" values="0 0 0 0 0 0 0 0 0 0 0 0 0 0 0 0 0 0 127 0" result="hardAlpha"/>
<feOffset/>
<feGaussianBlur stdDeviation="70.8652"/>
<feColorMatrix type="matrix" values="0 0 0 0 1 0 0 0 0 1 0 0 0 0 1 0 0 0 0.25 0"/>
<feBlend mode="normal" in2="effect5_dropShadow_7294_15642" result="effect6_dropShadow_7294_15642"/>
<feBlend mode="normal" in="SourceGraphic" in2="effect6_dropShadow_7294_15642" result="shape"/>
</filter>
<filter id="filter10_dddddd_7294_15642" x="137.566" y="117.926" width="306.203" height="292.852" filterUnits="userSpaceOnUse" color-interpolation-filters="sRGB">
<feFlood flood-opacity="0" result="BackgroundImageFix"/>
<feColorMatrix in="SourceAlpha" type="matrix" values="0 0 0 0 0 0 0 0 0 0 0 0 0 0 0 0 0 0 127 0" result="hardAlpha"/>
<feOffset/>
<feGaussianBlur stdDeviation="1.68727"/>
<feColorMatrix type="matrix" values="0 0 0 0 1 0 0 0 0 1 0 0 0 0 1 0 0 0 0.25 0"/>
<feBlend mode="normal" in2="BackgroundImageFix" result="effect1_dropShadow_7294_15642"/>
<feColorMatrix in="SourceAlpha" type="matrix" values="0 0 0 0 0 0 0 0 0 0 0 0 0 0 0 0 0 0 127 0" result="hardAlpha"/>
<feOffset/>
<feGaussianBlur stdDeviation="3.37454"/>
<feColorMatrix type="matrix" values="0 0 0 0 1 0 0 0 0 1 0 0 0 0 1 0 0 0 0.25 0"/>
<feBlend mode="normal" in2="effect1_dropShadow_7294_15642" result="effect2_dropShadow_7294_15642"/>
<feColorMatrix in="SourceAlpha" type="matrix" values="0 0 0 0 0 0 0 0 0 0 0 0 0 0 0 0 0 0 127 0" result="hardAlpha"/>
<feOffset/>
<feGaussianBlur stdDeviation="11.8109"/>
<feColorMatrix type="matrix" values="0 0 0 0 1 0 0 0 0 1 0 0 0 0 1 0 0 0 0.25 0"/>
<feBlend mode="normal" in2="effect2_dropShadow_7294_15642" result="effect3_dropShadow_7294_15642"/>
<feColorMatrix in="SourceAlpha" type="matrix" values="0 0 0 0 0 0 0 0 0 0 0 0 0 0 0 0 0 0 127 0" result="hardAlpha"/>
<feOffset/>
<feGaussianBlur stdDeviation="23.6217"/>
<feColorMatrix type="matrix" values="0 0 0 0 1 0 0 0 0 1 0 0 0 0 1 0 0 0 0.25 0"/>
<feBlend mode="normal" in2="effect3_dropShadow_7294_15642" result="effect4_dropShadow_7294_15642"/>
<feColorMatrix in="SourceAlpha" type="matrix" values="0 0 0 0 0 0 0 0 0 0 0 0 0 0 0 0 0 0 127 0" result="hardAlpha"/>
<feOffset/>
<feGaussianBlur stdDeviation="40.4944"/>
<feColorMatrix type="matrix" values="0 0 0 0 1 0 0 0 0 1 0 0 0 0 1 0 0 0 0.25 0"/>
<feBlend mode="normal" in2="effect4_dropShadow_7294_15642" result="effect5_dropShadow_7294_15642"/>
<feColorMatrix in="SourceAlpha" type="matrix" values="0 0 0 0 0 0 0 0 0 0 0 0 0 0 0 0 0 0 127 0" result="hardAlpha"/>
<feOffset/>
<feGaussianBlur stdDeviation="70.8652"/>
<feColorMatrix type="matrix" values="0 0 0 0 1 0 0 0 0 1 0 0 0 0 1 0 0 0 0.25 0"/>
<feBlend mode="normal" in2="effect5_dropShadow_7294_15642" result="effect6_dropShadow_7294_15642"/>
<feBlend mode="normal" in="SourceGraphic" in2="effect6_dropShadow_7294_15642" result="shape"/>
</filter>
<filter id="filter11_dddddd_7294_15642" x="185.637" y="101.84" width="306.203" height="292.852" filterUnits="userSpaceOnUse" color-interpolation-filters="sRGB">
<feFlood flood-opacity="0" result="BackgroundImageFix"/>
<feColorMatrix in="SourceAlpha" type="matrix" values="0 0 0 0 0 0 0 0 0 0 0 0 0 0 0 0 0 0 127 0" result="hardAlpha"/>
<feOffset/>
<feGaussianBlur stdDeviation="1.68727"/>
<feColorMatrix type="matrix" values="0 0 0 0 1 0 0 0 0 1 0 0 0 0 1 0 0 0 0.25 0"/>
<feBlend mode="normal" in2="BackgroundImageFix" result="effect1_dropShadow_7294_15642"/>
<feColorMatrix in="SourceAlpha" type="matrix" values="0 0 0 0 0 0 0 0 0 0 0 0 0 0 0 0 0 0 127 0" result="hardAlpha"/>
<feOffset/>
<feGaussianBlur stdDeviation="3.37454"/>
<feColorMatrix type="matrix" values="0 0 0 0 1 0 0 0 0 1 0 0 0 0 1 0 0 0 0.25 0"/>
<feBlend mode="normal" in2="effect1_dropShadow_7294_15642" result="effect2_dropShadow_7294_15642"/>
<feColorMatrix in="SourceAlpha" type="matrix" values="0 0 0 0 0 0 0 0 0 0 0 0 0 0 0 0 0 0 127 0" result="hardAlpha"/>
<feOffset/>
<feGaussianBlur stdDeviation="11.8109"/>
<feColorMatrix type="matrix" values="0 0 0 0 1 0 0 0 0 1 0 0 0 0 1 0 0 0 0.25 0"/>
<feBlend mode="normal" in2="effect2_dropShadow_7294_15642" result="effect3_dropShadow_7294_15642"/>
<feColorMatrix in="SourceAlpha" type="matrix" values="0 0 0 0 0 0 0 0 0 0 0 0 0 0 0 0 0 0 127 0" result="hardAlpha"/>
<feOffset/>
<feGaussianBlur stdDeviation="23.6217"/>
<feColorMatrix type="matrix" values="0 0 0 0 1 0 0 0 0 1 0 0 0 0 1 0 0 0 0.25 0"/>
<feBlend mode="normal" in2="effect3_dropShadow_7294_15642" result="effect4_dropShadow_7294_15642"/>
<feColorMatrix in="SourceAlpha" type="matrix" values="0 0 0 0 0 0 0 0 0 0 0 0 0 0 0 0 0 0 127 0" result="hardAlpha"/>
<feOffset/>
<feGaussianBlur stdDeviation="40.4944"/>
<feColorMatrix type="matrix" values="0 0 0 0 1 0 0 0 0 1 0 0 0 0 1 0 0 0 0.25 0"/>
<feBlend mode="normal" in2="effect4_dropShadow_7294_15642" result="effect5_dropShadow_7294_15642"/>
<feColorMatrix in="SourceAlpha" type="matrix" values="0 0 0 0 0 0 0 0 0 0 0 0 0 0 0 0 0 0 127 0" result="hardAlpha"/>
<feOffset/>
<feGaussianBlur stdDeviation="70.8652"/>
<feColorMatrix type="matrix" values="0 0 0 0 1 0 0 0 0 1 0 0 0 0 1 0 0 0 0.25 0"/>
<feBlend mode="normal" in2="effect5_dropShadow_7294_15642" result="effect6_dropShadow_7294_15642"/>
<feBlend mode="normal" in="SourceGraphic" in2="effect6_dropShadow_7294_15642" result="shape"/>
</filter>
<filter id="filter12_dddddd_7294_15642" x="253.973" y="17.5742" width="302.094" height="321.437" filterUnits="userSpaceOnUse" color-interpolation-filters="sRGB">
<feFlood flood-opacity="0" result="BackgroundImageFix"/>
<feColorMatrix in="SourceAlpha" type="matrix" values="0 0 0 0 0 0 0 0 0 0 0 0 0 0 0 0 0 0 127 0" result="hardAlpha"/>
<feOffset/>
<feGaussianBlur stdDeviation="1.68727"/>
<feColorMatrix type="matrix" values="0 0 0 0 1 0 0 0 0 1 0 0 0 0 1 0 0 0 0.25 0"/>
<feBlend mode="normal" in2="BackgroundImageFix" result="effect1_dropShadow_7294_15642"/>
<feColorMatrix in="SourceAlpha" type="matrix" values="0 0 0 0 0 0 0 0 0 0 0 0 0 0 0 0 0 0 127 0" result="hardAlpha"/>
<feOffset/>
<feGaussianBlur stdDeviation="3.37453"/>
<feColorMatrix type="matrix" values="0 0 0 0 1 0 0 0 0 1 0 0 0 0 1 0 0 0 0.25 0"/>
<feBlend mode="normal" in2="effect1_dropShadow_7294_15642" result="effect2_dropShadow_7294_15642"/>
<feColorMatrix in="SourceAlpha" type="matrix" values="0 0 0 0 0 0 0 0 0 0 0 0 0 0 0 0 0 0 127 0" result="hardAlpha"/>
<feOffset/>
<feGaussianBlur stdDeviation="11.8109"/>
<feColorMatrix type="matrix" values="0 0 0 0 1 0 0 0 0 1 0 0 0 0 1 0 0 0 0.25 0"/>
<feBlend mode="normal" in2="effect2_dropShadow_7294_15642" result="effect3_dropShadow_7294_15642"/>
<feColorMatrix in="SourceAlpha" type="matrix" values="0 0 0 0 0 0 0 0 0 0 0 0 0 0 0 0 0 0 127 0" result="hardAlpha"/>
<feOffset/>
<feGaussianBlur stdDeviation="23.6217"/>
<feColorMatrix type="matrix" values="0 0 0 0 1 0 0 0 0 1 0 0 0 0 1 0 0 0 0.25 0"/>
<feBlend mode="normal" in2="effect3_dropShadow_7294_15642" result="effect4_dropShadow_7294_15642"/>
<feColorMatrix in="SourceAlpha" type="matrix" values="0 0 0 0 0 0 0 0 0 0 0 0 0 0 0 0 0 0 127 0" result="hardAlpha"/>
<feOffset/>
<feGaussianBlur stdDeviation="40.4944"/>
<feColorMatrix type="matrix" values="0 0 0 0 1 0 0 0 0 1 0 0 0 0 1 0 0 0 0.25 0"/>
<feBlend mode="normal" in2="effect4_dropShadow_7294_15642" result="effect5_dropShadow_7294_15642"/>
<feColorMatrix in="SourceAlpha" type="matrix" values="0 0 0 0 0 0 0 0 0 0 0 0 0 0 0 0 0 0 127 0" result="hardAlpha"/>
<feOffset/>
<feGaussianBlur stdDeviation="70.8652"/>
<feColorMatrix type="matrix" values="0 0 0 0 1 0 0 0 0 1 0 0 0 0 1 0 0 0 0.25 0"/>
<feBlend mode="normal" in2="effect5_dropShadow_7294_15642" result="effect6_dropShadow_7294_15642"/>
<feBlend mode="normal" in="SourceGraphic" in2="effect6_dropShadow_7294_15642" result="shape"/>
</filter>
<filter id="filter13_dddddd_7294_15642" x="432.879" y="97.293" width="322.203" height="354.148" filterUnits="userSpaceOnUse" color-interpolation-filters="sRGB">
<feFlood flood-opacity="0" result="BackgroundImageFix"/>
<feColorMatrix in="SourceAlpha" type="matrix" values="0 0 0 0 0 0 0 0 0 0 0 0 0 0 0 0 0 0 127 0" result="hardAlpha"/>
<feOffset/>
<feGaussianBlur stdDeviation="1.68727"/>
<feColorMatrix type="matrix" values="0 0 0 0 1 0 0 0 0 1 0 0 0 0 1 0 0 0 0.25 0"/>
<feBlend mode="normal" in2="BackgroundImageFix" result="effect1_dropShadow_7294_15642"/>
<feColorMatrix in="SourceAlpha" type="matrix" values="0 0 0 0 0 0 0 0 0 0 0 0 0 0 0 0 0 0 127 0" result="hardAlpha"/>
<feOffset/>
<feGaussianBlur stdDeviation="3.37453"/>
<feColorMatrix type="matrix" values="0 0 0 0 1 0 0 0 0 1 0 0 0 0 1 0 0 0 0.25 0"/>
<feBlend mode="normal" in2="effect1_dropShadow_7294_15642" result="effect2_dropShadow_7294_15642"/>
<feColorMatrix in="SourceAlpha" type="matrix" values="0 0 0 0 0 0 0 0 0 0 0 0 0 0 0 0 0 0 127 0" result="hardAlpha"/>
<feOffset/>
<feGaussianBlur stdDeviation="11.8109"/>
<feColorMatrix type="matrix" values="0 0 0 0 1 0 0 0 0 1 0 0 0 0 1 0 0 0 0.25 0"/>
<feBlend mode="normal" in2="effect2_dropShadow_7294_15642" result="effect3_dropShadow_7294_15642"/>
<feColorMatrix in="SourceAlpha" type="matrix" values="0 0 0 0 0 0 0 0 0 0 0 0 0 0 0 0 0 0 127 0" result="hardAlpha"/>
<feOffset/>
<feGaussianBlur stdDeviation="23.6217"/>
<feColorMatrix type="matrix" values="0 0 0 0 1 0 0 0 0 1 0 0 0 0 1 0 0 0 0.25 0"/>
<feBlend mode="normal" in2="effect3_dropShadow_7294_15642" result="effect4_dropShadow_7294_15642"/>
<feColorMatrix in="SourceAlpha" type="matrix" values="0 0 0 0 0 0 0 0 0 0 0 0 0 0 0 0 0 0 127 0" result="hardAlpha"/>
<feOffset/>
<feGaussianBlur stdDeviation="40.4944"/>
<feColorMatrix type="matrix" values="0 0 0 0 1 0 0 0 0 1 0 0 0 0 1 0 0 0 0.25 0"/>
<feBlend mode="normal" in2="effect4_dropShadow_7294_15642" result="effect5_dropShadow_7294_15642"/>
<feColorMatrix in="SourceAlpha" type="matrix" values="0 0 0 0 0 0 0 0 0 0 0 0 0 0 0 0 0 0 127 0" result="hardAlpha"/>
<feOffset/>
<feGaussianBlur stdDeviation="70.8652"/>
<feColorMatrix type="matrix" values="0 0 0 0 1 0 0 0 0 1 0 0 0 0 1 0 0 0 0.25 0"/>
<feBlend mode="normal" in2="effect5_dropShadow_7294_15642" result="effect6_dropShadow_7294_15642"/>
<feBlend mode="normal" in="SourceGraphic" in2="effect6_dropShadow_7294_15642" result="shape"/>
</filter>
<filter id="filter14_dddddd_7294_15642" x="393.941" y="187.945" width="320.375" height="352.836" filterUnits="userSpaceOnUse" color-interpolation-filters="sRGB">
<feFlood flood-opacity="0" result="BackgroundImageFix"/>
<feColorMatrix in="SourceAlpha" type="matrix" values="0 0 0 0 0 0 0 0 0 0 0 0 0 0 0 0 0 0 127 0" result="hardAlpha"/>
<feOffset/>
<feGaussianBlur stdDeviation="1.68727"/>
<feColorMatrix type="matrix" values="0 0 0 0 1 0 0 0 0 1 0 0 0 0 1 0 0 0 0.25 0"/>
<feBlend mode="normal" in2="BackgroundImageFix" result="effect1_dropShadow_7294_15642"/>
<feColorMatrix in="SourceAlpha" type="matrix" values="0 0 0 0 0 0 0 0 0 0 0 0 0 0 0 0 0 0 127 0" result="hardAlpha"/>
<feOffset/>
<feGaussianBlur stdDeviation="3.37453"/>
<feColorMatrix type="matrix" values="0 0 0 0 1 0 0 0 0 1 0 0 0 0 1 0 0 0 0.25 0"/>
<feBlend mode="normal" in2="effect1_dropShadow_7294_15642" result="effect2_dropShadow_7294_15642"/>
<feColorMatrix in="SourceAlpha" type="matrix" values="0 0 0 0 0 0 0 0 0 0 0 0 0 0 0 0 0 0 127 0" result="hardAlpha"/>
<feOffset/>
<feGaussianBlur stdDeviation="11.8109"/>
<feColorMatrix type="matrix" values="0 0 0 0 1 0 0 0 0 1 0 0 0 0 1 0 0 0 0.25 0"/>
<feBlend mode="normal" in2="effect2_dropShadow_7294_15642" result="effect3_dropShadow_7294_15642"/>
<feColorMatrix in="SourceAlpha" type="matrix" values="0 0 0 0 0 0 0 0 0 0 0 0 0 0 0 0 0 0 127 0" result="hardAlpha"/>
<feOffset/>
<feGaussianBlur stdDeviation="23.6217"/>
<feColorMatrix type="matrix" values="0 0 0 0 1 0 0 0 0 1 0 0 0 0 1 0 0 0 0.25 0"/>
<feBlend mode="normal" in2="effect3_dropShadow_7294_15642" result="effect4_dropShadow_7294_15642"/>
<feColorMatrix in="SourceAlpha" type="matrix" values="0 0 0 0 0 0 0 0 0 0 0 0 0 0 0 0 0 0 127 0" result="hardAlpha"/>
<feOffset/>
<feGaussianBlur stdDeviation="40.4944"/>
<feColorMatrix type="matrix" values="0 0 0 0 1 0 0 0 0 1 0 0 0 0 1 0 0 0 0.25 0"/>
<feBlend mode="normal" in2="effect4_dropShadow_7294_15642" result="effect5_dropShadow_7294_15642"/>
<feColorMatrix in="SourceAlpha" type="matrix" values="0 0 0 0 0 0 0 0 0 0 0 0 0 0 0 0 0 0 127 0" result="hardAlpha"/>
<feOffset/>
<feGaussianBlur stdDeviation="70.8652"/>
<feColorMatrix type="matrix" values="0 0 0 0 1 0 0 0 0 1 0 0 0 0 1 0 0 0 0.25 0"/>
<feBlend mode="normal" in2="effect5_dropShadow_7294_15642" result="effect6_dropShadow_7294_15642"/>
<feBlend mode="normal" in="SourceGraphic" in2="effect6_dropShadow_7294_15642" result="shape"/>
</filter>
<filter id="filter15_dddddd_7294_15642" x="317.504" y="262.367" width="355.016" height="311.113" filterUnits="userSpaceOnUse" color-interpolation-filters="sRGB">
<feFlood flood-opacity="0" result="BackgroundImageFix"/>
<feColorMatrix in="SourceAlpha" type="matrix" values="0 0 0 0 0 0 0 0 0 0 0 0 0 0 0 0 0 0 127 0" result="hardAlpha"/>
<feOffset/>
<feGaussianBlur stdDeviation="1.68727"/>
<feColorMatrix type="matrix" values="0 0 0 0 1 0 0 0 0 1 0 0 0 0 1 0 0 0 0.25 0"/>
<feBlend mode="normal" in2="BackgroundImageFix" result="effect1_dropShadow_7294_15642"/>
<feColorMatrix in="SourceAlpha" type="matrix" values="0 0 0 0 0 0 0 0 0 0 0 0 0 0 0 0 0 0 127 0" result="hardAlpha"/>
<feOffset/>
<feGaussianBlur stdDeviation="3.37453"/>
<feColorMatrix type="matrix" values="0 0 0 0 1 0 0 0 0 1 0 0 0 0 1 0 0 0 0.25 0"/>
<feBlend mode="normal" in2="effect1_dropShadow_7294_15642" result="effect2_dropShadow_7294_15642"/>
<feColorMatrix in="SourceAlpha" type="matrix" values="0 0 0 0 0 0 0 0 0 0 0 0 0 0 0 0 0 0 127 0" result="hardAlpha"/>
<feOffset/>
<feGaussianBlur stdDeviation="11.8109"/>
<feColorMatrix type="matrix" values="0 0 0 0 1 0 0 0 0 1 0 0 0 0 1 0 0 0 0.25 0"/>
<feBlend mode="normal" in2="effect2_dropShadow_7294_15642" result="effect3_dropShadow_7294_15642"/>
<feColorMatrix in="SourceAlpha" type="matrix" values="0 0 0 0 0 0 0 0 0 0 0 0 0 0 0 0 0 0 127 0" result="hardAlpha"/>
<feOffset/>
<feGaussianBlur stdDeviation="23.6217"/>
<feColorMatrix type="matrix" values="0 0 0 0 1 0 0 0 0 1 0 0 0 0 1 0 0 0 0.25 0"/>
<feBlend mode="normal" in2="effect3_dropShadow_7294_15642" result="effect4_dropShadow_7294_15642"/>
<feColorMatrix in="SourceAlpha" type="matrix" values="0 0 0 0 0 0 0 0 0 0 0 0 0 0 0 0 0 0 127 0" result="hardAlpha"/>
<feOffset/>
<feGaussianBlur stdDeviation="40.4944"/>
<feColorMatrix type="matrix" values="0 0 0 0 1 0 0 0 0 1 0 0 0 0 1 0 0 0 0.25 0"/>
<feBlend mode="normal" in2="effect4_dropShadow_7294_15642" result="effect5_dropShadow_7294_15642"/>
<feColorMatrix in="SourceAlpha" type="matrix" values="0 0 0 0 0 0 0 0 0 0 0 0 0 0 0 0 0 0 127 0" result="hardAlpha"/>
<feOffset/>
<feGaussianBlur stdDeviation="70.8652"/>
<feColorMatrix type="matrix" values="0 0 0 0 1 0 0 0 0 1 0 0 0 0 1 0 0 0 0.25 0"/>
<feBlend mode="normal" in2="effect5_dropShadow_7294_15642" result="effect6_dropShadow_7294_15642"/>
<feBlend mode="normal" in="SourceGraphic" in2="effect6_dropShadow_7294_15642" result="shape"/>
</filter>
<filter id="filter16_dddddd_7294_15642" x="222.535" y="288.051" width="357" height="315.195" filterUnits="userSpaceOnUse" color-interpolation-filters="sRGB">
<feFlood flood-opacity="0" result="BackgroundImageFix"/>
<feColorMatrix in="SourceAlpha" type="matrix" values="0 0 0 0 0 0 0 0 0 0 0 0 0 0 0 0 0 0 127 0" result="hardAlpha"/>
<feOffset/>
<feGaussianBlur stdDeviation="1.68727"/>
<feColorMatrix type="matrix" values="0 0 0 0 1 0 0 0 0 1 0 0 0 0 1 0 0 0 0.25 0"/>
<feBlend mode="normal" in2="BackgroundImageFix" result="effect1_dropShadow_7294_15642"/>
<feColorMatrix in="SourceAlpha" type="matrix" values="0 0 0 0 0 0 0 0 0 0 0 0 0 0 0 0 0 0 127 0" result="hardAlpha"/>
<feOffset/>
<feGaussianBlur stdDeviation="3.37453"/>
<feColorMatrix type="matrix" values="0 0 0 0 1 0 0 0 0 1 0 0 0 0 1 0 0 0 0.25 0"/>
<feBlend mode="normal" in2="effect1_dropShadow_7294_15642" result="effect2_dropShadow_7294_15642"/>
<feColorMatrix in="SourceAlpha" type="matrix" values="0 0 0 0 0 0 0 0 0 0 0 0 0 0 0 0 0 0 127 0" result="hardAlpha"/>
<feOffset/>
<feGaussianBlur stdDeviation="11.8109"/>
<feColorMatrix type="matrix" values="0 0 0 0 1 0 0 0 0 1 0 0 0 0 1 0 0 0 0.25 0"/>
<feBlend mode="normal" in2="effect2_dropShadow_7294_15642" result="effect3_dropShadow_7294_15642"/>
<feColorMatrix in="SourceAlpha" type="matrix" values="0 0 0 0 0 0 0 0 0 0 0 0 0 0 0 0 0 0 127 0" result="hardAlpha"/>
<feOffset/>
<feGaussianBlur stdDeviation="23.6217"/>
<feColorMatrix type="matrix" values="0 0 0 0 1 0 0 0 0 1 0 0 0 0 1 0 0 0 0.25 0"/>
<feBlend mode="normal" in2="effect3_dropShadow_7294_15642" result="effect4_dropShadow_7294_15642"/>
<feColorMatrix in="SourceAlpha" type="matrix" values="0 0 0 0 0 0 0 0 0 0 0 0 0 0 0 0 0 0 127 0" result="hardAlpha"/>
<feOffset/>
<feGaussianBlur stdDeviation="40.4944"/>
<feColorMatrix type="matrix" values="0 0 0 0 1 0 0 0 0 1 0 0 0 0 1 0 0 0 0.25 0"/>
<feBlend mode="normal" in2="effect4_dropShadow_7294_15642" result="effect5_dropShadow_7294_15642"/>
<feColorMatrix in="SourceAlpha" type="matrix" values="0 0 0 0 0 0 0 0 0 0 0 0 0 0 0 0 0 0 127 0" result="hardAlpha"/>
<feOffset/>
<feGaussianBlur stdDeviation="70.8652"/>
<feColorMatrix type="matrix" values="0 0 0 0 1 0 0 0 0 1 0 0 0 0 1 0 0 0 0.25 0"/>
<feBlend mode="normal" in2="effect5_dropShadow_7294_15642" result="effect6_dropShadow_7294_15642"/>
<feBlend mode="normal" in="SourceGraphic" in2="effect6_dropShadow_7294_15642" result="shape"/>
</filter>
<linearGradient id="paint0_linear_7294_15642" x1="422.634" y1="-5.81715" x2="497.05" y2="312.226" gradientUnits="userSpaceOnUse">
<stop stop-color="#282828"/>
<stop offset="1" stop-color="#121212"/>
</linearGradient>
<linearGradient id="paint1_linear_7294_15642" x1="635.378" y1="261.758" x2="380.977" y2="486.336" gradientUnits="userSpaceOnUse">
<stop/>
<stop offset="0.23" stop-color="#4C4C4C"/>
<stop offset="0.475"/>
<stop offset="0.755" stop-color="#4C4C4C"/>
<stop offset="1"/>
</linearGradient>
<linearGradient id="paint2_linear_7294_15642" x1="751.066" y1="324.433" x2="606.239" y2="296.381" gradientUnits="userSpaceOnUse">
<stop stop-color="white" stop-opacity="0"/>
<stop offset="1" stop-color="white"/>
</linearGradient>
<linearGradient id="paint3_linear_7294_15642" x1="673.613" y1="490.804" x2="528.786" y2="462.752" gradientUnits="userSpaceOnUse">
<stop stop-color="white" stop-opacity="0"/>
<stop offset="1" stop-color="white"/>
</linearGradient>
<linearGradient id="paint4_linear_7294_15642" x1="501.332" y1="548.46" x2="356.505" y2="520.409" gradientUnits="userSpaceOnUse">
<stop stop-color="white" stop-opacity="0"/>
<stop offset="1" stop-color="white"/>
</linearGradient>
<linearGradient id="paint5_linear_7294_15642" x1="496.059" y1="-0.198816" x2="625.498" y2="151.759" gradientUnits="userSpaceOnUse">
<stop stop-color="white" stop-opacity="0"/>
<stop offset="1" stop-color="white"/>
</linearGradient>
<linearGradient id="paint6_linear_7294_15642" x1="317.246" y1="157.594" x2="446.686" y2="309.552" gradientUnits="userSpaceOnUse">
<stop stop-color="white" stop-opacity="0"/>
<stop offset="1" stop-color="white"/>
</linearGradient>
<linearGradient id="paint7_linear_7294_15642" x1="364.285" y1="-27.044" x2="219.458" y2="-55.0952" gradientUnits="userSpaceOnUse">
<stop stop-color="white"/>
<stop offset="1" stop-color="white" stop-opacity="0"/>
</linearGradient>
<linearGradient id="paint8_linear_7294_15642" x1="185.48" y1="130.753" x2="40.6533" y2="102.702" gradientUnits="userSpaceOnUse">
<stop stop-color="white"/>
<stop offset="1" stop-color="white" stop-opacity="0"/>
</linearGradient>
<linearGradient id="paint9_linear_7294_15642" x1="239.684" y1="12.2899" x2="100.314" y2="-14.7042" gradientUnits="userSpaceOnUse">
<stop stop-color="white"/>
<stop offset="1" stop-color="white" stop-opacity="0"/>
</linearGradient>
<linearGradient id="paint10_linear_7294_15642" x1="345.527" y1="444.292" x2="200.7" y2="416.241" gradientUnits="userSpaceOnUse">
<stop stop-color="white" stop-opacity="0"/>
<stop offset="1" stop-color="#44FFB0"/>
</linearGradient>
<linearGradient id="paint11_linear_7294_15642" x1="800.527" y1="246.292" x2="655.7" y2="218.241" gradientUnits="userSpaceOnUse">
<stop stop-color="white" stop-opacity="0"/>
<stop offset="1" stop-color="#44FFB0"/>
</linearGradient>
<linearGradient id="paint12_linear_7294_15642" x1="800.527" y1="114.292" x2="655.7" y2="86.2408" gradientUnits="userSpaceOnUse">
<stop stop-color="white" stop-opacity="0"/>
<stop offset="1" stop-color="#44FFB0"/>
</linearGradient>
<linearGradient id="paint13_linear_7294_15642" x1="617.527" y1="114.292" x2="472.7" y2="86.2408" gradientUnits="userSpaceOnUse">
<stop stop-color="white" stop-opacity="0"/>
<stop offset="1" stop-color="#44FFB0"/>
</linearGradient>
<linearGradient id="paint14_linear_7294_15642" x1="175.527" y1="306.292" x2="30.7002" y2="278.241" gradientUnits="userSpaceOnUse">
<stop stop-color="white" stop-opacity="0"/>
<stop offset="1" stop-color="#44FFB0"/>
</linearGradient>
<linearGradient id="paint15_linear_7294_15642" x1="175.527" y1="444.292" x2="30.7002" y2="416.241" gradientUnits="userSpaceOnUse">
<stop stop-color="white" stop-opacity="0"/>
<stop offset="1" stop-color="#44FFB0"/>
</linearGradient>
<clipPath id="clip0_7294_15642">
<path d="M0 30C0 13.4315 13.4315 0 30 0H798C814.569 0 828 13.4315 828 30V479C828 495.569 814.569 509 798 509H30C13.4315 509 0 495.569 0 479V30Z" fill="white"/>
</clipPath>
<clipPath id="clip1_7294_15642">
<rect width="511.59" height="825.868" fill="white" transform="matrix(-0.749682 0.661798 0.661798 0.749682 285.227 -203.484)"/>
</clipPath>
<clipPath id="clip2_7294_15642">
<rect width="55.7085" height="62.875" fill="white" transform="matrix(-0.939693 0.34202 -0.241922 0.970296 514.32 283.969)"/>
</clipPath>
<clipPath id="clip3_7294_15642">
<rect width="41" height="41" fill="white" transform="matrix(-0.222226 0.896967 -1.01497 0.282872 364.578 146.645)"/>
</clipPath>
</defs>
</svg>
